<?xml version="1.0" encoding="UTF-8" standalone="no"?>
<svg
   xmlns:dc="http://purl.org/dc/elements/1.1/"
   xmlns:cc="http://creativecommons.org/ns#"
   xmlns:rdf="http://www.w3.org/1999/02/22-rdf-syntax-ns#"
   xmlns:svg="http://www.w3.org/2000/svg"
   xmlns="http://www.w3.org/2000/svg"
   xmlns:sodipodi="http://sodipodi.sourceforge.net/DTD/sodipodi-0.dtd"
   xmlns:inkscape="http://www.inkscape.org/namespaces/inkscape"
   id="Layer_1"
   data-name="Layer 1"
   viewBox="0 0 386.09143 278.24973"
   version="1.1"
   sodipodi:docname="fsc-2022-logo-2-square.svg"
   width="386.09143"
   height="278.24973"
   inkscape:version="1.0 (4035a4fb49, 2020-05-01)">
  <metadata
     id="metadata166">
    <rdf:RDF>
      <cc:Work
         rdf:about="">
        <dc:format>image/svg+xml</dc:format>
        <dc:type
           rdf:resource="http://purl.org/dc/dcmitype/StillImage" />
        <dc:title />
      </cc:Work>
    </rdf:RDF>
  </metadata>
  <sodipodi:namedview
     inkscape:document-rotation="0"
     pagecolor="#ffffff"
     bordercolor="#666666"
     borderopacity="1"
     objecttolerance="10"
     gridtolerance="10"
     guidetolerance="10"
     inkscape:pageopacity="0"
     inkscape:pageshadow="2"
     inkscape:window-width="1368"
     inkscape:window-height="842"
     id="namedview164"
     showgrid="false"
     inkscape:zoom="1.0296034"
     inkscape:cx="161.23865"
     inkscape:cy="112.8482"
     inkscape:window-x="-6"
     inkscape:window-y="-6"
     inkscape:window-maximized="1"
     inkscape:current-layer="Layer_1" />
  <defs
     id="defs4">
    <style
       id="style2">.cls-1{fill:#231f20;}.cls-2{fill:#be1e2d;}.cls-3{fill:#50497a;}.cls-4{fill:#2a2554;}.cls-5{fill:#36754a;}.cls-6{fill:#f58355;}.cls-7{fill:#4b4931;}.cls-8{fill:#21302e;}.cls-9{fill:#608dc9;}.cls-10{fill:#0c77a4;}.cls-11{fill:#054e3e;}.cls-12{fill:#085e95;}.cls-13{fill:#263966;}.cls-14{fill:#4d805a;}.cls-15{fill:#332f70;}.cls-16{fill:#2b4587;}.cls-17{fill:#333580;}</style>
  </defs>
  <g
     id="g1118"
     transform="matrix(0.61058913,0,0,0.61058913,-88.301548,149.07129)"
     style="stroke-width:1.63776">
    <path
       class="cls-1"
       d="M 169.11,106.94 V 127.3 H 157.86 V 74.24 h 15.46 q 10.81,0 16,3.94 5.19,3.94 5.19,12 a 14.09,14.09 0 0 1 -2.58,8.33 17,17 0 0 1 -7.29,5.71 q 12,17.9 15.6,23.12 h -12.47 l -12.67,-20.4 z m 0,-9.14 h 3.63 c 3.56,0 6.18,-0.6 7.88,-1.78 a 6.35,6.35 0 0 0 2.54,-5.59 q 0,-3.78 -2.6,-5.37 -2.6,-1.59 -8,-1.6 h -3.41 z"
       id="path6"
       style="stroke-width:1.63776" />
    <path
       class="cls-1"
       d="M 247.9,127.3 H 217.34 V 74.24 h 30.56 v 9.22 h -19.31 v 11.65 h 18 v 9.22 h -18 V 118 h 19.31 z"
       id="path8"
       style="stroke-width:1.63776" />
    <path
       class="cls-1"
       d="M 269.37,127.3 V 74.24 h 11.26 v 53.06 z"
       id="path10"
       style="stroke-width:1.63776" />
    <path
       class="cls-1"
       d="M 326.86,127.3 314.08,85.67 h -0.33 q 0.69,12.7 0.69,17 V 127.3 H 304.39 V 74.24 h 15.32 l 12.55,40.58 h 0.22 L 345.8,74.24 h 15.32 v 53.06 h -10.49 v -25.11 c 0,-1.19 0,-2.55 0.05,-4.1 0.05,-1.55 0.2,-5.67 0.49,-12.34 h -0.32 l -13.69,41.55 z"
       id="path12"
       style="stroke-width:1.63776" />
    <path
       class="cls-1"
       d="m 417.37,127.3 -3.85,-12.63 h -19.35 l -3.84,12.63 H 378.2 L 396.93,74 h 13.76 l 18.8,53.28 z m -6.54,-22.06 q -5.32,-17.17 -6,-19.42 c -0.44,-1.5 -0.76,-2.69 -1,-3.56 q -1.2,4.65 -6.86,23 z"
       id="path14"
       style="stroke-width:1.63776" />
    <path
       class="cls-1"
       d="m 466.72,97.51 h 21 V 125 a 60.21,60.21 0 0 1 -9.64,2.34 62.15,62.15 0 0 1 -9.24,0.67 q -12,0 -18.34,-7.06 -6.34,-7.06 -6.34,-20.27 0,-12.86 7.35,-20 7.35,-7.14 20.38,-7.19 a 39.38,39.38 0 0 1 15.76,3.27 l -3.74,9 a 26.61,26.61 0 0 0 -12.09,-2.91 15,15 0 0 0 -11.69,4.9 q -4.38,4.91 -4.39,13.18 0,8.64 3.54,13.19 3.54,4.55 10.29,4.56 a 36.52,36.52 0 0 0 7.15,-0.73 v -11.08 h -10 z"
       id="path16"
       style="stroke-width:1.63776" />
    <path
       class="cls-1"
       d="M 510.8,127.3 V 74.24 h 11.26 v 53.06 z"
       id="path18"
       style="stroke-width:1.63776" />
    <path
       class="cls-1"
       d="m 592.89,127.3 h -14.3 L 555.51,87.16 h -0.33 q 0.69,10.64 0.69,15.17 v 25 h -10 V 74.24 H 560 L 583,114 h 0.25 q -0.54,-10.33 -0.54,-14.62 V 74.24 h 10.12 z"
       id="path20"
       style="stroke-width:1.63776" />
    <path
       class="cls-1"
       d="M 616.66,127.3 V 74.24 h 11.25 v 53.06 z"
       id="path22"
       style="stroke-width:1.63776" />
    <path
       class="cls-1"
       d="m 698.75,127.3 h -14.3 L 661.36,87.16 H 661 q 0.69,10.64 0.69,15.17 v 25 h -10 V 74.24 h 14.19 l 23,39.74 h 0.25 q -0.54,-10.33 -0.54,-14.62 V 74.24 h 10.11 z"
       id="path24"
       style="stroke-width:1.63776" />
    <path
       class="cls-1"
       d="M 742.65,97.51 H 763.7 V 125 a 60.09,60.09 0 0 1 -9.63,2.34 62.15,62.15 0 0 1 -9.24,0.67 q -12,0 -18.35,-7.06 -6.35,-7.06 -6.33,-20.27 0,-12.86 7.35,-20 7.35,-7.14 20.38,-7.19 a 39.51,39.51 0 0 1 15.75,3.27 l -3.74,9 a 26.56,26.56 0 0 0 -12.08,-2.91 15,15 0 0 0 -11.69,4.9 q -4.39,4.91 -4.39,13.18 0,8.64 3.54,13.19 3.54,4.55 10.29,4.56 a 36.52,36.52 0 0 0 7.15,-0.73 v -11.08 h -10.06 z"
       id="path26"
       style="stroke-width:1.63776" />
    <path
       class="cls-1"
       d="m 217,164.47 h -4 v -15.29 h -5 v -3.28 h 14 v 3.28 h -5 z"
       id="path28"
       style="stroke-width:1.63776" />
    <path
       class="cls-1"
       d="m 240.08,164.47 h -3.93 v -8 h -7.36 v 8 h -3.93 V 145.9 h 3.93 v 7.28 h 7.36 v -7.28 h 3.93 z"
       id="path30"
       style="stroke-width:1.63776" />
    <path
       class="cls-1"
       d="m 255.46,164.47 h -10.7 V 145.9 h 10.7 v 3.22 h -6.76 v 4.08 h 6.3 v 3.23 h -6.3 v 4.79 h 6.76 z"
       id="path32"
       style="stroke-width:1.63776" />
    <path
       class="cls-1"
       d="m 285.65,157.1 a 6.82,6.82 0 0 1 -2.58,5.66 11.27,11.27 0 0 1 -7.2,2.07 16.94,16.94 0 0 1 -7.51,-1.59 V 158 a 31,31 0 0 0 4.54,1.69 13.57,13.57 0 0 0 3.41,0.49 4.88,4.88 0 0 0 2.84,-0.71 2.41,2.41 0 0 0 1,-2.1 2.29,2.29 0 0 0 -0.43,-1.39 4.76,4.76 0 0 0 -1.28,-1.17 32.21,32.21 0 0 0 -3.44,-1.81 16.12,16.12 0 0 1 -3.65,-2.2 8.22,8.22 0 0 1 -1.94,-2.45 7.67,7.67 0 0 1 1.66,-8.8 10,10 0 0 1 6.6,-2 15.43,15.43 0 0 1 4,0.49 25,25 0 0 1 3.92,1.38 l -1.81,4.37 a 27,27 0 0 0 -3.51,-1.22 11.4,11.4 0 0 0 -2.73,-0.34 3.64,3.64 0 0 0 -2.54,0.77 2.47,2.47 0 0 0 -0.86,1.95 2.37,2.37 0 0 0 0.35,1.29 3.62,3.62 0 0 0 1.1,1.07 32.55,32.55 0 0 0 3.56,1.86 14.33,14.33 0 0 1 5.1,3.57 7,7 0 0 1 1.4,4.36 z"
       id="path34"
       style="stroke-width:1.63776" />
    <path
       class="cls-1"
       d="m 296.62,164.47 h -3.93 v -15.29 h -5.05 v -3.28 h 14 v 3.28 h -5.05 z"
       id="path36"
       style="stroke-width:1.63776" />
    <path
       class="cls-1"
       d="m 319.64,145.9 v 12 a 6.88,6.88 0 0 1 -0.92,3.6 5.9,5.9 0 0 1 -2.66,2.38 9.43,9.43 0 0 1 -4.12,0.82 7.92,7.92 0 0 1 -5.56,-1.83 6.48,6.48 0 0 1 -2,-5 v -12 h 3.92 v 11.37 a 4.77,4.77 0 0 0 0.87,3.15 3.58,3.58 0 0 0 2.86,1 3.5,3.5 0 0 0 2.8,-1 4.77,4.77 0 0 0 0.87,-3.17 V 145.9 Z"
       id="path38"
       style="stroke-width:1.63776" />
    <path
       class="cls-1"
       d="m 339.6,155 c 0,3.05 -0.87,5.4 -2.61,7 -1.74,1.6 -4.26,2.44 -7.54,2.44 h -5.26 V 145.9 H 330 a 9.81,9.81 0 0 1 7.06,2.4 8.8,8.8 0 0 1 2.54,6.7 z m -4.09,0.1 q 0,-6 -5.29,-6 h -2.09 v 12.1 h 1.69 q 5.69,0 5.69,-6.09 z"
       id="path40"
       style="stroke-width:1.63776" />
    <path
       class="cls-1"
       d="M 354.14,164.47 H 343.45 V 145.9 h 10.69 v 3.22 h -6.75 v 4.08 h 6.28 v 3.23 h -6.28 v 4.79 h 6.75 z"
       id="path42"
       style="stroke-width:1.63776" />
    <path
       class="cls-1"
       d="m 374.49,164.47 h -5 l -8.08,-14.05 h -0.11 q 0.24,3.72 0.24,5.31 v 8.74 H 358 V 145.9 h 5 l 8.07,13.91 h 0.09 c -0.13,-2.42 -0.19,-4.12 -0.19,-5.12 v -8.79 h 3.54 z"
       id="path44"
       style="stroke-width:1.63776" />
    <path
       class="cls-1"
       d="m 386.33,164.47 h -3.93 v -15.29 h -5 v -3.28 h 14 v 3.28 h -5 z"
       id="path46"
       style="stroke-width:1.63776" />
    <path
       class="cls-1"
       d="m 404.89,164.47 v -26.53 h 5.63 v 21.89 h 10.76 v 4.64 z"
       id="path48"
       style="stroke-width:1.63776" />
    <path
       class="cls-1"
       d="M 435.58,164.47 H 424.89 V 145.9 h 10.69 v 3.22 h -6.76 v 4.08 h 6.29 v 3.23 h -6.29 v 4.79 h 6.76 z"
       id="path50"
       style="stroke-width:1.63776" />
    <path
       class="cls-1"
       d="m 450.83,164.47 -1.35,-4.42 h -6.77 l -1.35,4.42 h -4.24 l 6.55,-18.65 h 4.82 l 6.58,18.65 z m -2.29,-7.72 c -1.25,-4 -2,-6.27 -2.1,-6.8 -0.1,-0.53 -0.27,-0.94 -0.34,-1.24 q -0.42,1.62 -2.4,8 z"
       id="path52"
       style="stroke-width:1.63776" />
    <path
       class="cls-1"
       d="m 461.34,157.34 v 7.13 h -3.93 V 145.9 h 5.41 q 3.78,0 5.6,1.38 a 5.48,5.48 0 0 1 0.91,7.1 6,6 0 0 1 -2.55,2 q 4.2,6.26 5.46,8.09 h -4.37 l -4.43,-7.13 z m 0,-3.2 h 1.28 a 4.79,4.79 0 0 0 2.75,-0.62 2.23,2.23 0 0 0 0.89,-2 2,2 0 0 0 -0.91,-1.88 5.57,5.57 0 0 0 -2.81,-0.56 h -1.2 z"
       id="path54"
       style="stroke-width:1.63776" />
    <path
       class="cls-1"
       d="m 491.06,164.47 h -5 L 478,150.42 h -0.11 q 0.24,3.72 0.24,5.31 v 8.74 h -3.52 V 145.9 h 5 l 8.07,13.91 h 0.08 c -0.12,-2.42 -0.19,-4.12 -0.19,-5.12 v -8.79 h 3.55 z"
       id="path56"
       style="stroke-width:1.63776" />
    <path
       class="cls-1"
       d="M 495.73,164.47 V 145.9 h 3.94 v 18.57 z"
       id="path58"
       style="stroke-width:1.63776" />
    <path
       class="cls-1"
       d="m 520.82,164.47 h -5 l -8.08,-14.05 h -0.12 q 0.24,3.72 0.24,5.31 v 8.74 h -3.51 V 145.9 h 5 l 8.07,13.91 h 0.09 c -0.13,-2.42 -0.19,-4.12 -0.19,-5.12 v -8.79 h 3.54 z"
       id="path60"
       style="stroke-width:1.63776" />
    <path
       class="cls-1"
       d="m 532.55,154 h 7.36 v 9.63 a 20.7,20.7 0 0 1 -3.37,0.82 21.83,21.83 0 0 1 -3.23,0.23 8.16,8.16 0 0 1 -6.42,-2.47 q -2.22,-2.46 -2.22,-7.09 a 9.36,9.36 0 0 1 2.57,-7 9.76,9.76 0 0 1 7.14,-2.52 13.91,13.91 0 0 1 5.51,1.14 l -1.31,3.15 a 9.4,9.4 0 0 0 -4.23,-1 5.24,5.24 0 0 0 -4.09,1.71 6.64,6.64 0 0 0 -1.54,4.62 7.4,7.4 0 0 0 1.24,4.61 4.28,4.28 0 0 0 3.6,1.6 12.34,12.34 0 0 0 2.5,-0.26 v -3.87 h -3.51 z"
       id="path62"
       style="stroke-width:1.63776" />
    <path
       class="cls-1"
       d="M 570.27,164.47 H 555 v -26.53 h 15.28 v 4.61 h -9.65 v 5.82 h 9 V 153 h -9 v 6.85 h 9.65 z"
       id="path64"
       style="stroke-width:1.63776" />
    <path
       class="cls-1"
       d="m 589.82,164.47 h -4.5 l -4.32,-7 -4.32,7 h -4.21 l 6.16,-9.58 -5.77,-9 h 4.35 l 4,6.68 3.92,-6.68 h 4.25 l -5.84,9.21 z"
       id="path66"
       style="stroke-width:1.63776" />
    <path
       class="cls-1"
       d="m 605,151.69 a 5.66,5.66 0 0 1 -1.88,4.59 8,8 0 0 1 -5.33,1.59 h -1.69 v 6.6 h -3.93 V 145.9 h 5.93 a 7.91,7.91 0 0 1 5.14,1.45 5.3,5.3 0 0 1 1.76,4.34 z m -8.9,2.95 h 1.3 a 4.3,4.3 0 0 0 2.72,-0.72 2.5,2.5 0 0 0 0.9,-2.09 2.56,2.56 0 0 0 -0.76,-2 3.5,3.5 0 0 0 -2.36,-0.67 h -1.8 z"
       id="path68"
       style="stroke-width:1.63776" />
    <path
       class="cls-1"
       d="m 619.19,164.47 h -10.7 V 145.9 h 10.7 v 3.22 h -6.76 v 4.08 h 6.29 v 3.23 h -6.29 v 4.79 h 6.76 z"
       id="path70"
       style="stroke-width:1.63776" />
    <path
       class="cls-1"
       d="m 627,157.34 v 7.13 h -3.94 V 145.9 h 5.42 q 3.78,0 5.6,1.38 a 5.51,5.51 0 0 1 0.91,7.1 6,6 0 0 1 -2.55,2 q 4.18,6.26 5.46,8.09 h -4.37 l -4.43,-7.13 z m 0,-3.2 h 1.27 a 4.84,4.84 0 0 0 2.76,-0.62 2.23,2.23 0 0 0 0.89,-2 2,2 0 0 0 -0.91,-1.88 5.57,5.57 0 0 0 -2.81,-0.56 H 627 Z"
       id="path72"
       style="stroke-width:1.63776" />
    <path
       class="cls-1"
       d="M 640.24,164.47 V 145.9 h 3.94 v 18.57 z"
       id="path74"
       style="stroke-width:1.63776" />
    <path
       class="cls-1"
       d="m 659.55,164.47 h -10.7 V 145.9 h 10.7 v 3.22 h -6.76 v 4.08 h 6.29 v 3.23 h -6.29 v 4.79 h 6.76 z"
       id="path76"
       style="stroke-width:1.63776" />
    <path
       class="cls-1"
       d="m 679.9,164.47 h -5 l -8.08,-14.05 h -0.11 q 0.24,3.72 0.24,5.31 v 8.74 h -3.52 V 145.9 h 5 l 8.07,13.91 h 0.08 c -0.12,-2.42 -0.19,-4.12 -0.19,-5.12 v -8.79 h 3.55 z"
       id="path78"
       style="stroke-width:1.63776" />
    <path
       class="cls-1"
       d="m 692.46,148.91 a 4,4 0 0 0 -3.44,1.67 7.77,7.77 0 0 0 -1.22,4.66 q 0,6.21 4.66,6.21 a 14.82,14.82 0 0 0 4.74,-1 v 3.3 a 13.18,13.18 0 0 1 -5.11,1 7.82,7.82 0 0 1 -6.2,-2.45 q -2.14,-2.46 -2.14,-7.06 a 11.68,11.68 0 0 1 1,-5.08 7.7,7.7 0 0 1 3,-3.34 8.93,8.93 0 0 1 4.63,-1.16 12.52,12.52 0 0 1 5.44,1.31 l -1.27,3.2 a 19.26,19.26 0 0 0 -2.1,-0.86 6.18,6.18 0 0 0 -1.99,-0.4 z"
       id="path80"
       style="stroke-width:1.63776" />
    <path
       class="cls-1"
       d="m 711.85,164.47 h -10.7 V 145.9 h 10.7 v 3.22 h -6.76 v 4.08 h 6.29 v 3.23 h -6.29 v 4.79 h 6.76 z"
       id="path82"
       style="stroke-width:1.63776" />
    <path
       class="cls-1"
       d="m 362.67,201.64 h -1.53 l -5.82,-20.47 c -0.49,-1.69 -0.85,-3.06 -1.09,-4.14 -0.2,1.05 -0.47,2.26 -0.83,3.63 -0.36,1.37 -2.31,8.36 -5.85,21 H 346 l -7.3,-26.53 h 1.95 l 4.64,17.09 c 0.18,0.69 0.35,1.33 0.51,1.91 0.16,0.58 0.3,1.14 0.43,1.66 0.13,0.52 0.24,1 0.34,1.48 0.1,0.48 0.2,1 0.28,1.45 q 0.43,-2.47 1.85,-7.5 l 4.54,-16.09 h 2 l 5.32,18.47 c 0.61,2.13 1.06,3.85 1.32,5.15 0.16,-0.87 0.36,-1.79 0.61,-2.77 0.25,-0.98 2.11,-7.93 5.6,-20.85 H 370 Z"
       id="path84"
       style="stroke-width:1.63776" />
    <path
       class="cls-1"
       d="m 374.68,201.64 v -26.53 h 1.85 v 26.53 z"
       id="path86"
       style="stroke-width:1.63776" />
    <path
       class="cls-1"
       d="m 391,201.64 h -1.87 v -24.79 h -8.62 v -1.74 h 19.11 v 1.74 H 391 Z"
       id="path88"
       style="stroke-width:1.63776" />
    <path
       class="cls-1"
       d="m 422.73,201.64 h -1.86 v -13 h -15.5 v 13 h -1.85 v -26.53 h 1.85 v 11.77 h 15.5 v -11.77 h 1.86 z"
       id="path90"
       style="stroke-width:1.63776" />
    <path
       class="cls-2"
       d="m 451.23,176.39 a 10,10 0 0 0 -7.86,3.2 c -1.91,2.13 -2.87,5 -2.87,8.74 0,3.74 0.9,6.63 2.71,8.82 1.81,2.19 4.37,3.14 7.73,3.14 a 20.87,20.87 0 0 0 6.13,-0.85 v 1.63 a 20,20 0 0 1 -6.57,0.93 11.15,11.15 0 0 1 -8.8,-3.61 q -3.21,-3.62 -3.21,-10.09 a 15.85,15.85 0 0 1 1.53,-7.13 11.05,11.05 0 0 1 4.41,-4.77 13.05,13.05 0 0 1 6.69,-1.68 16,16 0 0 1 6.95,1.46 l -0.75,1.67 a 13.43,13.43 0 0 0 -6.09,-1.46 z"
       id="path92"
       style="stroke-width:1.63776" />
    <path
       class="cls-2"
       d="M 475.76,192.27 H 465 l -3.7,9.37 h -2 L 469.9,175 h 1.18 l 10.45,26.64 h -2.08 z m -10.11,-1.67 h 9.49 l -3.61,-9.6 c -0.3,-0.75 -0.66,-1.79 -1.09,-3.12 a 27.31,27.31 0 0 1 -1.07,3.16 z"
       id="path94"
       style="stroke-width:1.63776" />
    <path
       class="cls-2"
       d="m 504.58,201.64 h -1.87 L 487,178.08 h -0.15 c 0.15,2.81 0.22,4.92 0.22,6.35 v 17.21 h -1.78 v -26.53 h 1.85 l 15.7,23.51 H 503 c -0.11,-2.17 -0.17,-4.23 -0.17,-6.2 v -17.31 h 1.8 z"
       id="path96"
       style="stroke-width:1.63776" />
    <path
       class="cls-2"
       d="m 527.77,175.11 h 2 l -9.93,26.53 h -1.63 l -9.89,-26.53 h 2 l 6.68,18 a 52.49,52.49 0 0 1 2,6.14 c 0.25,-0.91 0.72,-2.32 1.44,-4.23 z"
       id="path98"
       style="stroke-width:1.63776" />
    <path
       class="cls-2"
       d="m 546.32,192.27 h -10.78 l -3.7,9.37 h -2.05 L 540.46,175 h 1.18 l 10.45,26.64 H 550 Z m -10.11,-1.67 h 9.49 l -3.61,-9.6 c -0.3,-0.75 -0.66,-1.79 -1.09,-3.12 a 27.31,27.31 0 0 1 -1.07,3.16 z"
       id="path100"
       style="stroke-width:1.63776" />
    <path
       class="cls-2"
       d="m 570.49,194.79 a 6.38,6.38 0 0 1 -2.44,5.27 10.2,10.2 0 0 1 -6.49,1.94 20.34,20.34 0 0 1 -7.46,-1.07 v -1.85 a 19,19 0 0 0 7.32,1.21 8.26,8.26 0 0 0 5.18,-1.49 4.74,4.74 0 0 0 1.91,-3.93 4.57,4.57 0 0 0 -0.63,-2.5 5.88,5.88 0 0 0 -2.07,-1.8 25.83,25.83 0 0 0 -4.21,-1.76 14.58,14.58 0 0 1 -5.62,-3 6.49,6.49 0 0 1 0.78,-9.19 9.31,9.31 0 0 1 6,-1.88 17.53,17.53 0 0 1 7,1.42 l -0.67,1.6 a 16.53,16.53 0 0 0 -6.31,-1.38 7.38,7.38 0 0 0 -4.68,1.36 4.41,4.41 0 0 0 -1.75,3.7 4.3,4.3 0 0 0 2.29,4.11 24.45,24.45 0 0 0 4.17,1.81 22.15,22.15 0 0 1 4.67,2.07 6.72,6.72 0 0 1 2.27,2.29 6.19,6.19 0 0 1 0.74,3.07 z"
       id="path102"
       style="stroke-width:1.63776" />
  </g>
  <g
     style="stroke-width:1.04372"
     id="g1149"
     transform="matrix(0.95811326,0,0,0.95811326,96.535895,-4.9512876)">
    <path
       style="stroke-width:1.04372"
       class="cls-3"
       d="m 32,46.81 v 0 a 42,42 0 0 0 -4.29,30.48 c 0,0.18 -3.6,8.15 -7.29,16.29 H 49 V 66.44 H 66.21 V 55.86 H 32 v -9"
       id="path104" />
    <polygon
       style="stroke-width:1.04372"
       class="cls-3"
       points="66.2,93.58 49,93.58 49,103.56 58.23,103.56 86.12,103.56 86.12,66.44 66.2,66.44 "
       id="polygon106" />
    <polyline
       style="stroke-width:1.04372"
       class="cls-4"
       points="66.2 66.44 49 66.44 49 93.58 66.2 93.58 66.2 66.44"
       id="polyline108" />
    <path
       style="stroke-width:1.04372"
       class="cls-5"
       d="m 49,93.58 v 10 H 16.64 v 17.21 a 7.49,7.49 0 0 1 -4.16,-9.72 l 2.5,-5.5 c 1.5,-3.29 3.48,-7.65 5.43,-12 z"
       id="path110" />
    <rect
       style="stroke-width:1.04372"
       class="cls-6"
       x="80.279999"
       y="39.34"
       width="21.959999"
       height="21.959999"
       id="rect112" />
    <rect
       style="stroke-width:1.04372"
       class="cls-6"
       x="184.84"
       y="37.939999"
       width="4.5300002"
       height="4.5300002"
       id="rect114" />
    <polygon
       style="stroke-width:1.04372"
       class="cls-6"
       points="108.6,131.45 108.6,138.41 114.87,138.41 114.87,112.65 89.11,112.65 89.11,131.45 "
       id="polygon116" />
    <polyline
       style="stroke-width:1.04372"
       class="cls-5"
       points="89.11 131.45 76.5 131.45 76.5 140.78 76.5 151.01 108.6 151.01 108.6 138.41 89.11 138.41 89.11 131.45"
       id="polyline118" />
    <polyline
       style="stroke-width:1.04372"
       class="cls-7"
       points="108.6 131.45 89.11 131.45 89.11 138.41 108.6 138.41 108.6 131.45"
       id="polyline120" />
    <path
       style="stroke-width:1.04372"
       class="cls-3"
       d="m 68.52,178.57 h 8 v 15.09 h 16 v 7.93 H 70.74 a 2.21,2.21 0 0 1 -2.22,-2.2 v 0 z"
       id="path122" />
    <polygon
       style="stroke-width:1.04372"
       class="cls-3"
       points="92.47,163.55 92.47,193.66 119.15,193.66 119.15,151.01 108.6,151.01 108.6,163.55 "
       id="polygon124" />
    <polyline
       style="stroke-width:1.04372"
       class="cls-8"
       points="108.6 151.01 76.5 151.01 76.5 163.55 92.47 163.55 92.47 163.55 108.6 163.55 108.6 151.01"
       id="polyline126" />
    <polyline
       style="stroke-width:1.04372"
       class="cls-4"
       points="92.47 163.55 76.5 163.55 76.5 178.57 76.5 178.57 76.5 193.66 92.47 193.66 92.47 163.55"
       id="polyline128" />
    <rect
       style="stroke-width:1.04372"
       class="cls-9"
       x="76.5"
       y="103.56"
       width="9.6199999"
       height="27.879999"
       id="rect130" />
    <path
       style="stroke-width:1.04372"
       class="cls-10"
       d="M 31.27,136.24 H 49 v -32.68 h 9.24 v 27.89 H 76.5 v 9.33 H 38.71 V 155 c -4.25,-4.61 -6.39,-10.94 -7.44,-18.76 z"
       id="path132" />
    <path
       style="stroke-width:1.04372"
       class="cls-11"
       d="M 49,103.56 H 16.64 v 17.21 a 7.51,7.51 0 0 0 2.81,0.54 h 8.84 c 1,0 2.08,0.59 2.1,1.55 a 119.75,119.75 0 0 0 0.88,13.38 H 49 v -32.68"
       id="path134" />
    <polyline
       style="stroke-width:1.04372"
       class="cls-12"
       points="76.5 103.56 58.23 103.56 58.23 131.45 76.5 131.45 76.5 103.56"
       id="polyline136" />
    <path
       style="stroke-width:1.04372"
       class="cls-10"
       d="m 76.6,19.89 v 36 H 66.2 V 32.81 H 43.85 C 51.92,26.31 62.84,21.55 76.6,19.89 Z"
       id="path138" />
    <path
       style="stroke-width:1.04372"
       class="cls-13"
       d="M 66.21,32.81 H 43.85 A 47.24,47.24 0 0 0 32,46.81 v 9 h 34.21 v -23"
       id="path140" />
    <rect
       style="stroke-width:1.04372"
       class="cls-3"
       x="94.540001"
       y="65.230003"
       width="40.66"
       height="40.66"
       id="rect142" />
    <rect
       style="stroke-width:1.04372"
       class="cls-5"
       x="108.73"
       y="28.280001"
       width="16.24"
       height="16.24"
       id="rect144" />
    <rect
       style="stroke-width:1.04372"
       class="cls-5"
       x="129.81"
       y="34.849998"
       width="24.59"
       height="24.59"
       id="rect146" />
    <rect
       style="stroke-width:1.04372"
       class="cls-14"
       x="180.17999"
       y="50.110001"
       width="9.3299999"
       height="9.3299999"
       id="rect148" />
    <rect
       style="stroke-width:1.04372"
       class="cls-10"
       x="144.64999"
       y="11.25"
       width="17.889999"
       height="17.889999"
       id="rect150" />
    <rect
       style="stroke-width:1.04372"
       class="cls-10"
       x="168.74001"
       y="29.139999"
       width="13.22"
       height="13.22"
       id="rect152" />
    <rect
       style="stroke-width:1.04372"
       class="cls-4"
       x="158.56"
       y="42.360001"
       width="7.75"
       height="7.75"
       id="rect154" />
    <path
       style="stroke-width:1.04372"
       class="cls-15"
       d="m 76.5,163.56 h -9.69 a 2.18,2.18 0 0 1 1.71,2.13 v 12.88 h 8 v -15"
       id="path156" />
    <path
       style="stroke-width:1.04372"
       class="cls-16"
       d="M 76.5,140.78 H 38.72 V 155 c 5.12,5.56 13.33,8.56 26.39,8.56 H 76.5 v -22.78"
       id="path158" />
    <polyline
       style="stroke-width:1.04372"
       class="cls-17"
       points="76.5 163.55 66.78 163.55 66.81 163.56 66.81 163.56 76.5 163.56 76.5 163.55 76.5 163.55"
       id="polyline160" />
  </g>
</svg>
