<svg id="Layer_1" data-name="Layer 1" xmlns="http://www.w3.org/2000/svg" viewBox="0 0 775.37 213"><defs><style>.cls-1{fill:#231f20;}.cls-2{fill:#be1e2d;}.cls-3{fill:#50497a;}.cls-4{fill:#2a2554;}.cls-5{fill:#36754a;}.cls-6{fill:#f58355;}.cls-7{fill:#4b4931;}.cls-8{fill:#21302e;}.cls-9{fill:#608dc9;}.cls-10{fill:#0c77a4;}.cls-11{fill:#054e3e;}.cls-12{fill:#085e95;}.cls-13{fill:#263966;}.cls-14{fill:#4d805a;}.cls-15{fill:#332f70;}.cls-16{fill:#2b4587;}.cls-17{fill:#333580;}</style></defs><g id="Face_Squares" data-name="Face Squares"><path class="cls-1" d="M169.11,106.94V127.3H157.86V74.24h15.46q10.81,0,16,3.94t5.19,12a14.09,14.09,0,0,1-2.58,8.33,17,17,0,0,1-7.29,5.71q12,17.9,15.6,23.12H187.77l-12.67-20.4Zm0-9.14h3.63c3.56,0,6.18-.6,7.88-1.78a6.35,6.35,0,0,0,2.54-5.59q0-3.78-2.6-5.37t-8-1.6h-3.41Z"/><path class="cls-1" d="M247.9,127.3H217.34V74.24H247.9v9.22H228.59V95.11h18v9.22h-18V118H247.9Z"/><path class="cls-1" d="M269.37,127.3V74.24h11.26V127.3Z"/><path class="cls-1" d="M326.86,127.3,314.08,85.67h-.33q.69,12.7.69,17V127.3H304.39V74.24h15.32l12.55,40.58h.22L345.8,74.24h15.32V127.3H350.63V102.19c0-1.19,0-2.55.05-4.1s.2-5.67.49-12.34h-.32L337.16,127.3Z"/><path class="cls-1" d="M417.37,127.3l-3.85-12.63H394.17l-3.84,12.63H378.2L396.93,74h13.76l18.8,53.28Zm-6.54-22.06q-5.32-17.17-6-19.42c-.44-1.5-.76-2.69-1-3.56q-1.2,4.65-6.86,23Z"/><path class="cls-1" d="M466.72,97.51h21V125a60.21,60.21,0,0,1-9.64,2.34,62.15,62.15,0,0,1-9.24.67q-12,0-18.34-7.06t-6.34-20.27q0-12.86,7.35-20t20.38-7.19a39.38,39.38,0,0,1,15.76,3.27l-3.74,9a26.61,26.61,0,0,0-12.09-2.91,15,15,0,0,0-11.69,4.9q-4.38,4.91-4.39,13.18,0,8.64,3.54,13.19t10.29,4.56a36.52,36.52,0,0,0,7.15-.73V106.87h-10Z"/><path class="cls-1" d="M510.8,127.3V74.24h11.26V127.3Z"/><path class="cls-1" d="M592.89,127.3h-14.3L555.51,87.16h-.33q.69,10.64.69,15.17v25h-10V74.24H560L583,114h.25q-.54-10.33-.54-14.62V74.24h10.12Z"/><path class="cls-1" d="M616.66,127.3V74.24h11.25V127.3Z"/><path class="cls-1" d="M698.75,127.3h-14.3L661.36,87.16H661q.69,10.64.69,15.17v25h-10V74.24h14.19l23,39.74h.25q-.54-10.33-.54-14.62V74.24H698.7Z"/><path class="cls-1" d="M742.65,97.51H763.7V125a60.09,60.09,0,0,1-9.63,2.34,62.15,62.15,0,0,1-9.24.67q-12,0-18.35-7.06t-6.33-20.27q0-12.86,7.35-20t20.38-7.19a39.51,39.51,0,0,1,15.75,3.27l-3.74,9a26.56,26.56,0,0,0-12.08-2.91,15,15,0,0,0-11.69,4.9q-4.39,4.91-4.39,13.18,0,8.64,3.54,13.19t10.29,4.56a36.52,36.52,0,0,0,7.15-.73V106.87H742.65Z"/><path class="cls-1" d="M217,164.47h-4V149.18h-5V145.9h14v3.28h-5Z"/><path class="cls-1" d="M240.08,164.47h-3.93v-8h-7.36v8h-3.93V145.9h3.93v7.28h7.36V145.9h3.93Z"/><path class="cls-1" d="M255.46,164.47h-10.7V145.9h10.7v3.22H248.7v4.08H255v3.23h-6.3v4.79h6.76Z"/><path class="cls-1" d="M285.65,157.1a6.82,6.82,0,0,1-2.58,5.66,11.27,11.27,0,0,1-7.2,2.07,16.94,16.94,0,0,1-7.51-1.59V158a31,31,0,0,0,4.54,1.69,13.57,13.57,0,0,0,3.41.49,4.88,4.88,0,0,0,2.84-.71,2.41,2.41,0,0,0,1-2.1,2.29,2.29,0,0,0-.43-1.39,4.76,4.76,0,0,0-1.28-1.17A32.21,32.21,0,0,0,275,153a16.12,16.12,0,0,1-3.65-2.2,8.22,8.22,0,0,1-1.94-2.45,7.67,7.67,0,0,1,1.66-8.8,10,10,0,0,1,6.6-2,15.43,15.43,0,0,1,4,.49,25,25,0,0,1,3.92,1.38l-1.81,4.37a27,27,0,0,0-3.51-1.22,11.4,11.4,0,0,0-2.73-.34A3.64,3.64,0,0,0,275,143a2.47,2.47,0,0,0-.86,1.95,2.37,2.37,0,0,0,.35,1.29,3.62,3.62,0,0,0,1.1,1.07,32.55,32.55,0,0,0,3.56,1.86,14.33,14.33,0,0,1,5.1,3.57A7,7,0,0,1,285.65,157.1Z"/><path class="cls-1" d="M296.62,164.47h-3.93V149.18h-5.05V145.9h14v3.28h-5.05Z"/><path class="cls-1" d="M319.64,145.9v12a6.88,6.88,0,0,1-.92,3.6,5.9,5.9,0,0,1-2.66,2.38,9.43,9.43,0,0,1-4.12.82,7.92,7.92,0,0,1-5.56-1.83,6.48,6.48,0,0,1-2-5v-12h3.92v11.37a4.77,4.77,0,0,0,.87,3.15,3.58,3.58,0,0,0,2.86,1,3.5,3.5,0,0,0,2.8-1,4.77,4.77,0,0,0,.87-3.17V145.9Z"/><path class="cls-1" d="M339.6,155c0,3.05-.87,5.4-2.61,7s-4.26,2.44-7.54,2.44h-5.26V145.9H330a9.81,9.81,0,0,1,7.06,2.4A8.8,8.8,0,0,1,339.6,155Zm-4.09.1q0-6-5.29-6h-2.09v12.1h1.69q5.69,0,5.69-6.09Z"/><path class="cls-1" d="M354.14,164.47H343.45V145.9h10.69v3.22h-6.75v4.08h6.28v3.23h-6.28v4.79h6.75Z"/><path class="cls-1" d="M374.49,164.47h-5l-8.08-14.05h-.11q.24,3.72.24,5.31v8.74H358V145.9h5l8.07,13.91h.09c-.13-2.42-.19-4.12-.19-5.12V145.9h3.54Z"/><path class="cls-1" d="M386.33,164.47H382.4V149.18h-5V145.9h14v3.28h-5Z"/><path class="cls-1" d="M404.89,164.47V137.94h5.63v21.89h10.76v4.64Z"/><path class="cls-1" d="M435.58,164.47H424.89V145.9h10.69v3.22h-6.76v4.08h6.29v3.23h-6.29v4.79h6.76Z"/><path class="cls-1" d="M450.83,164.47l-1.35-4.42h-6.77l-1.35,4.42h-4.24l6.55-18.65h4.82l6.58,18.65Zm-2.29-7.72c-1.25-4-2-6.27-2.1-6.8s-.27-.94-.34-1.24q-.42,1.62-2.4,8Z"/><path class="cls-1" d="M461.34,157.34v7.13h-3.93V145.9h5.41q3.78,0,5.6,1.38a5.48,5.48,0,0,1,.91,7.1,6,6,0,0,1-2.55,2q4.2,6.26,5.46,8.09h-4.37l-4.43-7.13Zm0-3.2h1.28a4.79,4.79,0,0,0,2.75-.62,2.23,2.23,0,0,0,.89-2,2,2,0,0,0-.91-1.88,5.57,5.57,0,0,0-2.81-.56h-1.2Z"/><path class="cls-1" d="M491.06,164.47h-5L478,150.42h-.11q.24,3.72.24,5.31v8.74h-3.52V145.9h5l8.07,13.91h.08c-.12-2.42-.19-4.12-.19-5.12V145.9h3.55Z"/><path class="cls-1" d="M495.73,164.47V145.9h3.94v18.57Z"/><path class="cls-1" d="M520.82,164.47h-5l-8.08-14.05h-.12q.24,3.72.24,5.31v8.74h-3.51V145.9h5l8.07,13.91h.09c-.13-2.42-.19-4.12-.19-5.12V145.9h3.54Z"/><path class="cls-1" d="M532.55,154h7.36v9.63a20.7,20.7,0,0,1-3.37.82,21.83,21.83,0,0,1-3.23.23,8.16,8.16,0,0,1-6.42-2.47q-2.22-2.46-2.22-7.09a9.36,9.36,0,0,1,2.57-7,9.76,9.76,0,0,1,7.14-2.52,13.91,13.91,0,0,1,5.51,1.14l-1.31,3.15a9.4,9.4,0,0,0-4.23-1,5.24,5.24,0,0,0-4.09,1.71,6.64,6.64,0,0,0-1.54,4.62,7.4,7.4,0,0,0,1.24,4.61,4.28,4.28,0,0,0,3.6,1.6,12.34,12.34,0,0,0,2.5-.26V157.3h-3.51Z"/><path class="cls-1" d="M570.27,164.47H555V137.94h15.28v4.61h-9.65v5.82h9V153h-9v6.85h9.65Z"/><path class="cls-1" d="M589.82,164.47h-4.5l-4.32-7-4.32,7h-4.21l6.16-9.58-5.77-9h4.35l4,6.68,3.92-6.68h4.25l-5.84,9.21Z"/><path class="cls-1" d="M605,151.69a5.66,5.66,0,0,1-1.88,4.59,8,8,0,0,1-5.33,1.59H596.1v6.6h-3.93V145.9h5.93a7.91,7.91,0,0,1,5.14,1.45A5.3,5.3,0,0,1,605,151.69Zm-8.9,2.95h1.3a4.3,4.3,0,0,0,2.72-.72,2.5,2.5,0,0,0,.9-2.09,2.56,2.56,0,0,0-.76-2,3.5,3.5,0,0,0-2.36-.67h-1.8Z"/><path class="cls-1" d="M619.19,164.47h-10.7V145.9h10.7v3.22h-6.76v4.08h6.29v3.23h-6.29v4.79h6.76Z"/><path class="cls-1" d="M627,157.34v7.13h-3.94V145.9h5.42q3.78,0,5.6,1.38a5.51,5.51,0,0,1,.91,7.1,6,6,0,0,1-2.55,2q4.18,6.26,5.46,8.09h-4.37l-4.43-7.13Zm0-3.2h1.27a4.84,4.84,0,0,0,2.76-.62,2.23,2.23,0,0,0,.89-2,2,2,0,0,0-.91-1.88,5.57,5.57,0,0,0-2.81-.56H627Z"/><path class="cls-1" d="M640.24,164.47V145.9h3.94v18.57Z"/><path class="cls-1" d="M659.55,164.47h-10.7V145.9h10.7v3.22h-6.76v4.08h6.29v3.23h-6.29v4.79h6.76Z"/><path class="cls-1" d="M679.9,164.47h-5l-8.08-14.05h-.11q.24,3.72.24,5.31v8.74h-3.52V145.9h5l8.07,13.91h.08c-.12-2.42-.19-4.12-.19-5.12V145.9h3.55Z"/><path class="cls-1" d="M692.46,148.91a4,4,0,0,0-3.44,1.67,7.77,7.77,0,0,0-1.22,4.66q0,6.21,4.66,6.21a14.82,14.82,0,0,0,4.74-1v3.3a13.18,13.18,0,0,1-5.11,1,7.82,7.82,0,0,1-6.2-2.45q-2.14-2.46-2.14-7.06a11.68,11.68,0,0,1,1-5.08,7.7,7.7,0,0,1,3-3.34,8.93,8.93,0,0,1,4.63-1.16,12.52,12.52,0,0,1,5.44,1.31l-1.27,3.2a19.26,19.26,0,0,0-2.1-.86A6.18,6.18,0,0,0,692.46,148.91Z"/><path class="cls-1" d="M711.85,164.47h-10.7V145.9h10.7v3.22h-6.76v4.08h6.29v3.23h-6.29v4.79h6.76Z"/><path class="cls-1" d="M362.67,201.64h-1.53l-5.82-20.47c-.49-1.69-.85-3.06-1.09-4.14-.2,1.05-.47,2.26-.83,3.63s-2.31,8.36-5.85,21H346l-7.3-26.53h1.95l4.64,17.09c.18.69.35,1.33.51,1.91s.3,1.14.43,1.66.24,1,.34,1.48.2,1,.28,1.45q.43-2.47,1.85-7.5l4.54-16.09h2l5.32,18.47c.61,2.13,1.06,3.85,1.32,5.15.16-.87.36-1.79.61-2.77s2.11-7.93,5.6-20.85H370Z"/><path class="cls-1" d="M374.68,201.64V175.11h1.85v26.53Z"/><path class="cls-1" d="M391,201.64h-1.87V176.85h-8.62v-1.74h19.11v1.74H391Z"/><path class="cls-1" d="M422.73,201.64h-1.86v-13h-15.5v13h-1.85V175.11h1.85v11.77h15.5V175.11h1.86Z"/><path class="cls-2" d="M451.23,176.39a10,10,0,0,0-7.86,3.2c-1.91,2.13-2.87,5-2.87,8.74s.9,6.63,2.71,8.82,4.37,3.14,7.73,3.14a20.87,20.87,0,0,0,6.13-.85v1.63a20,20,0,0,1-6.57.93,11.15,11.15,0,0,1-8.8-3.61q-3.21-3.62-3.21-10.09a15.85,15.85,0,0,1,1.53-7.13,11.05,11.05,0,0,1,4.41-4.77,13.05,13.05,0,0,1,6.69-1.68,16,16,0,0,1,6.95,1.46l-.75,1.67A13.43,13.43,0,0,0,451.23,176.39Z"/><path class="cls-2" d="M475.76,192.27H465l-3.7,9.37h-2L469.9,175h1.18l10.45,26.64h-2.08Zm-10.11-1.67h9.49l-3.61-9.6c-.3-.75-.66-1.79-1.09-3.12a27.31,27.31,0,0,1-1.07,3.16Z"/><path class="cls-2" d="M504.58,201.64h-1.87L487,178.08h-.15c.15,2.81.22,4.92.22,6.35v17.21h-1.78V175.11h1.85l15.7,23.51H503c-.11-2.17-.17-4.23-.17-6.2V175.11h1.8Z"/><path class="cls-2" d="M527.77,175.11h2l-9.93,26.53h-1.63l-9.89-26.53h2l6.68,18a52.49,52.49,0,0,1,2,6.14c.25-.91.72-2.32,1.44-4.23Z"/><path class="cls-2" d="M546.32,192.27H535.54l-3.7,9.37h-2.05L540.46,175h1.18l10.45,26.64H550Zm-10.11-1.67h9.49l-3.61-9.6c-.3-.75-.66-1.79-1.09-3.12a27.31,27.31,0,0,1-1.07,3.16Z"/><path class="cls-2" d="M570.49,194.79a6.38,6.38,0,0,1-2.44,5.27,10.2,10.2,0,0,1-6.49,1.94,20.34,20.34,0,0,1-7.46-1.07v-1.85a19,19,0,0,0,7.32,1.21,8.26,8.26,0,0,0,5.18-1.49,4.74,4.74,0,0,0,1.91-3.93,4.57,4.57,0,0,0-.63-2.5,5.88,5.88,0,0,0-2.07-1.8,25.83,25.83,0,0,0-4.21-1.76,14.58,14.58,0,0,1-5.62-3,6.49,6.49,0,0,1,.78-9.19,9.31,9.31,0,0,1,6-1.88,17.53,17.53,0,0,1,7,1.42l-.67,1.6a16.53,16.53,0,0,0-6.31-1.38,7.38,7.38,0,0,0-4.68,1.36,4.41,4.41,0,0,0-1.75,3.7,4.3,4.3,0,0,0,2.29,4.11,24.45,24.45,0,0,0,4.17,1.81,22.15,22.15,0,0,1,4.67,2.07,6.72,6.72,0,0,1,2.27,2.29A6.19,6.19,0,0,1,570.49,194.79Z"/><path class="cls-3" d="M32,46.81h0a42,42,0,0,0-4.29,30.48c0,.18-3.6,8.15-7.29,16.29H49V66.44H66.21V55.86H32v-9"/><polygon class="cls-3" points="86.12 66.44 66.2 66.44 66.2 93.58 49 93.58 49 103.56 58.23 103.56 86.12 103.56 86.12 66.44"/><polyline class="cls-4" points="66.2 66.44 49 66.44 49 93.58 66.2 93.58 66.2 66.44"/><path class="cls-5" d="M49,93.58v10H16.64v17.21a7.49,7.49,0,0,1-4.16-9.72l2.5-5.5c1.5-3.29,3.48-7.65,5.43-12Z"/><rect class="cls-6" x="80.28" y="39.34" width="21.96" height="21.96"/><rect class="cls-6" x="184.84" y="37.94" width="4.53" height="4.53"/><polygon class="cls-6" points="114.87 112.65 89.11 112.65 89.11 131.45 108.6 131.45 108.6 138.41 114.87 138.41 114.87 112.65"/><polyline class="cls-5" points="89.11 131.45 76.5 131.45 76.5 140.78 76.5 151.01 108.6 151.01 108.6 138.41 89.11 138.41 89.11 131.45"/><polyline class="cls-7" points="108.6 131.45 89.11 131.45 89.11 138.41 108.6 138.41 108.6 131.45"/><path class="cls-3" d="M68.52,178.57h8v15.09h16v7.93H70.74a2.21,2.21,0,0,1-2.22-2.2h0Z"/><polygon class="cls-3" points="119.15 151.01 108.6 151.01 108.6 163.55 92.47 163.55 92.47 193.66 119.15 193.66 119.15 151.01"/><polyline class="cls-8" points="108.6 151.01 76.5 151.01 76.5 163.55 92.47 163.55 92.47 163.55 108.6 163.55 108.6 151.01"/><polyline class="cls-4" points="92.47 163.55 76.5 163.55 76.5 178.57 76.5 178.57 76.5 193.66 92.47 193.66 92.47 163.55"/><rect class="cls-9" x="76.5" y="103.56" width="9.62" height="27.88"/><path class="cls-10" d="M31.27,136.24H49V103.56h9.24v27.89H76.5v9.33H38.71V155C34.46,150.39,32.32,144.06,31.27,136.24Z"/><path class="cls-11" d="M49,103.56H16.64v17.21a7.51,7.51,0,0,0,2.81.54h8.84c1,0,2.08.59,2.1,1.55a119.75,119.75,0,0,0,.88,13.38H49V103.56"/><polyline class="cls-12" points="76.5 103.56 58.23 103.56 58.23 131.45 76.5 131.45 76.5 103.56"/><path class="cls-10" d="M76.6,19.89v36H66.2V32.81H43.85C51.92,26.31,62.84,21.55,76.6,19.89Z"/><path class="cls-13" d="M66.21,32.81H43.85A47.24,47.24,0,0,0,32,46.81v9H66.21v-23"/><rect class="cls-3" x="94.54" y="65.23" width="40.66" height="40.66"/><rect class="cls-5" x="108.73" y="28.28" width="16.24" height="16.24"/><rect class="cls-5" x="129.81" y="34.85" width="24.59" height="24.59"/><rect class="cls-14" x="180.18" y="50.11" width="9.33" height="9.33"/><rect class="cls-10" x="144.65" y="11.25" width="17.89" height="17.89"/><rect class="cls-10" x="168.74" y="29.14" width="13.22" height="13.22"/><rect class="cls-4" x="158.56" y="42.36" width="7.75" height="7.75"/><path class="cls-15" d="M76.5,163.56H66.81a2.18,2.18,0,0,1,1.71,2.13v12.88h8v-15"/><path class="cls-16" d="M76.5,140.78H38.72V155c5.12,5.56,13.33,8.56,26.39,8.56H76.5V140.78"/><polyline class="cls-17" points="76.5 163.55 66.78 163.55 66.81 163.56 66.81 163.56 76.5 163.56 76.5 163.55 76.5 163.55"/></g></svg>