<?xml version="1.0" encoding="UTF-8" standalone="no"?>
<svg
   xmlns:dc="http://purl.org/dc/elements/1.1/"
   xmlns:cc="http://creativecommons.org/ns#"
   xmlns:rdf="http://www.w3.org/1999/02/22-rdf-syntax-ns#"
   xmlns:svg="http://www.w3.org/2000/svg"
   xmlns="http://www.w3.org/2000/svg"
   xmlns:sodipodi="http://sodipodi.sourceforge.net/DTD/sodipodi-0.dtd"
   xmlns:inkscape="http://www.inkscape.org/namespaces/inkscape"
   sodipodi:docname="fsc-background.svg"
   inkscape:version="1.0 (4035a4fb49, 2020-05-01)"
   id="svg8"
   version="1.1"
   viewBox="0 0 507.99999 285.75001"
   height="1080"
   width="1920">
  <defs
     id="defs2" />
  <sodipodi:namedview
     inkscape:window-maximized="1"
     inkscape:window-y="-6"
     inkscape:window-x="-6"
     inkscape:window-height="842"
     inkscape:window-width="1368"
     units="px"
     showgrid="false"
     inkscape:document-rotation="0"
     inkscape:current-layer="layer1"
     inkscape:document-units="mm"
     inkscape:cy="806.94778"
     inkscape:cx="362.13931"
     inkscape:zoom="0.49497475"
     inkscape:pageshadow="2"
     inkscape:pageopacity="0.0"
     borderopacity="1.0"
     bordercolor="#666666"
     pagecolor="#ffffff"
     id="base" />
  <metadata
     id="metadata5">
    <rdf:RDF>
      <cc:Work
         rdf:about="">
        <dc:format>image/svg+xml</dc:format>
        <dc:type
           rdf:resource="http://purl.org/dc/dcmitype/StillImage" />
        <dc:title></dc:title>
      </cc:Work>
    </rdf:RDF>
  </metadata>
  <g
     id="layer1"
     inkscape:groupmode="layer"
     inkscape:label="Layer 1">
    <rect
       ry="0.40105277"
       rx="0.49735582"
       y="0"
       x="0"
       height="285.75"
       width="21.166668"
       id="rect833"
       style="fill:#2a2454;fill-opacity:1;stroke:none;stroke-width:0.500002;stroke-linecap:round;stroke-dashoffset:12.0945" />
    <text
       id="text837"
       y="279.47101"
       x="167.75832"
       style="font-style:normal;font-weight:normal;font-size:5.91304px;line-height:1.25;font-family:sans-serif;fill:#2a2454;fill-opacity:1;stroke:none;stroke-width:0.264583"
       xml:space="preserve"><tspan
         style="fill:#2a2454;fill-opacity:1;stroke-width:0.264583"
         y="279.47101"
         x="167.75832"
         id="tspan835"
         sodipodi:role="line">Center for Learning and Teaching  | REIMAGINING THE STUDENT LEARNING EXPERIENCE WITH CANVAS</tspan></text>
    <g
       style="stroke-width:2.32779"
       transform="matrix(0.4295922,0,0,0.4295922,405.95947,211.09502)"
       id="g1264">
      <path
         class="cls-3"
         d="m 180.63092,121.05557 v 0 a 11.1125,11.1125 0 0 0 -1.13506,8.06449 c 0,0.0476 -0.9525,2.15636 -1.92881,4.31007 h 7.56179 v -7.18079 h 4.55348 v -2.7993 h -9.0514 v -2.38125"
         id="path104"
         style="fill:#50497a;stroke-width:0.615893" />
      <polygon
         class="cls-3"
         points="49,103.56 58.23,103.56 86.12,103.56 86.12,66.44 66.2,66.44 66.2,93.58 49,93.58 "
         id="polygon106"
         style="fill:#50497a;stroke-width:2.32779"
         transform="matrix(0.26458333,0,0,0.26458333,172.16426,108.67042)" />
      <polyline
         class="cls-4"
         points="66.2 66.44 49 66.44 49 93.58 66.2 93.58 66.2 66.44"
         id="polyline108"
         style="fill:#2a2554;stroke-width:2.32779"
         transform="matrix(0.26458333,0,0,0.26458333,172.16426,108.67042)" />
      <path
         class="cls-5"
         d="m 185.12884,133.43013 v 2.64583 h -8.56192 v 4.55348 a 1.9817292,1.9817292 0 0 1 -1.10066,-2.57175 l 0.66145,-1.45521 c 0.39688,-0.87048 0.92075,-2.02406 1.43669,-3.175 z"
         id="path110"
         style="fill:#36754a;stroke-width:0.615893" />
      <rect
         class="cls-6"
         x="193.405"
         y="119.07912"
         width="5.8102498"
         height="5.8102498"
         id="rect112"
         style="fill:#f58355;stroke-width:0.615893" />
      <rect
         class="cls-6"
         x="221.06984"
         y="118.70871"
         width="1.1985625"
         height="1.1985625"
         id="rect114"
         style="fill:#f58355;stroke-width:0.615893" />
      <polygon
         class="cls-6"
         points="114.87,138.41 114.87,112.65 89.11,112.65 89.11,131.45 108.6,131.45 108.6,138.41 "
         id="polygon116"
         style="fill:#f58355;stroke-width:2.32779"
         transform="matrix(0.26458333,0,0,0.26458333,172.16426,108.67042)" />
      <polyline
         class="cls-5"
         points="89.11 131.45 76.5 131.45 76.5 140.78 76.5 151.01 108.6 151.01 108.6 138.41 89.11 138.41 89.11 131.45"
         id="polyline118"
         style="fill:#36754a;stroke-width:2.32779"
         transform="matrix(0.26458333,0,0,0.26458333,172.16426,108.67042)" />
      <polyline
         class="cls-7"
         points="108.6 131.45 89.11 131.45 89.11 138.41 108.6 138.41 108.6 131.45"
         id="polyline120"
         style="fill:#4b4931;stroke-width:2.32779"
         transform="matrix(0.26458333,0,0,0.26458333,172.16426,108.67042)" />
      <path
         class="cls-3"
         d="m 190.29351,155.91706 h 2.11666 v 3.99257 h 4.23334 v 2.09814 h -5.76263 a 0.58472917,0.58472917 0 0 1 -0.58737,-0.58208 v 0 z"
         id="path122"
         style="fill:#50497a;stroke-width:0.615893" />
      <polygon
         class="cls-3"
         points="119.15,193.66 119.15,151.01 108.6,151.01 108.6,163.55 92.47,163.55 92.47,193.66 "
         id="polygon124"
         style="fill:#50497a;stroke-width:2.32779"
         transform="matrix(0.26458333,0,0,0.26458333,172.16426,108.67042)" />
      <polyline
         class="cls-8"
         points="108.6 151.01 76.5 151.01 76.5 163.55 92.47 163.55 92.47 163.55 108.6 163.55 108.6 151.01"
         id="polyline126"
         style="fill:#21302e;stroke-width:2.32779"
         transform="matrix(0.26458333,0,0,0.26458333,172.16426,108.67042)" />
      <polyline
         class="cls-4"
         points="92.47 163.55 76.5 163.55 76.5 178.57 76.5 178.57 76.5 193.66 92.47 193.66 92.47 163.55"
         id="polyline128"
         style="fill:#2a2554;stroke-width:2.32779"
         transform="matrix(0.26458333,0,0,0.26458333,172.16426,108.67042)" />
      <rect
         class="cls-9"
         x="192.40488"
         y="136.07066"
         width="2.5452917"
         height="7.3765831"
         id="rect130"
         style="fill:#608dc9;stroke-width:0.615893" />
      <path
         class="cls-10"
         d="m 180.43778,144.71725 h 4.69106 v -8.64658 h 2.44475 v 7.37923 h 4.83129 v 2.46856 h -9.9986 v 3.76238 c -1.12448,-1.21973 -1.69069,-2.89455 -1.9685,-4.96359 z"
         id="path132"
         style="fill:#0c77a4;stroke-width:0.615893" />
      <path
         class="cls-11"
         d="m 185.12884,136.07067 h -8.56192 v 4.55348 a 1.9870208,1.9870208 0 0 0 0.74348,0.14287 h 2.33892 c 0.26458,0 0.55033,0.15611 0.55562,0.41011 a 31.683854,31.683854 0 0 0 0.23284,3.54012 h 4.69106 v -8.64658"
         id="path134"
         style="fill:#054e3e;stroke-width:0.615893" />
      <polyline
         class="cls-12"
         points="76.5 103.56 58.23 103.56 58.23 131.45 76.5 131.45 76.5 103.56"
         id="polyline136"
         style="fill:#085e95;stroke-width:2.32779"
         transform="matrix(0.26458333,0,0,0.26458333,172.16426,108.67042)" />
      <path
         class="cls-10"
         d="m 192.43134,113.93298 v 9.525 h -2.75167 v -6.10658 h -5.91344 c 2.13519,-1.71979 5.02444,-2.97921 8.66511,-3.41842 z"
         id="path138"
         style="fill:#0c77a4;stroke-width:0.615893" />
      <path
         class="cls-13"
         d="m 189.68232,117.3514 h -5.91609 a 12.498917,12.498917 0 0 0 -3.13531,3.70417 v 2.38124 h 9.0514 v -6.08541"
         id="path140"
         style="fill:#263966;stroke-width:0.615893" />
      <rect
         class="cls-3"
         x="197.17796"
         y="125.92919"
         width="10.757958"
         height="10.757958"
         id="rect142"
         style="fill:#50497a;stroke-width:0.615893" />
      <rect
         class="cls-5"
         x="200.9324"
         y="116.15284"
         width="4.296833"
         height="4.296833"
         id="rect144"
         style="fill:#36754a;stroke-width:0.615893" />
      <rect
         class="cls-5"
         x="206.50981"
         y="117.89115"
         width="6.506104"
         height="6.506104"
         id="rect146"
         style="fill:#36754a;stroke-width:0.615893" />
      <rect
         class="cls-14"
         x="219.83688"
         y="121.92869"
         width="2.4685624"
         height="2.4685624"
         id="rect148"
         style="fill:#4d805a;stroke-width:0.615893" />
      <rect
         class="cls-10"
         x="210.43623"
         y="111.64698"
         width="4.7333956"
         height="4.7333956"
         id="rect150"
         style="fill:#0c77a4;stroke-width:0.615893" />
      <rect
         class="cls-10"
         x="216.81004"
         y="116.38038"
         width="3.4977918"
         height="3.4977918"
         id="rect152"
         style="fill:#0c77a4;stroke-width:0.615893" />
      <rect
         class="cls-4"
         x="214.11659"
         y="119.87817"
         width="2.0505209"
         height="2.0505209"
         id="rect154"
         style="fill:#2a2554;stroke-width:0.615893" />
      <path
         class="cls-15"
         d="m 192.40488,151.94567 h -2.56381 a 0.57679167,0.57679167 0 0 1 0.45244,0.56356 v 3.40783 h 2.11666 v -3.96875"
         id="path156"
         style="fill:#332f70;stroke-width:0.615893" />
      <path
         class="cls-16"
         d="m 192.40488,145.91846 h -9.99596 v 3.76238 c 1.35467,1.47108 3.5269,2.26483 6.98236,2.26483 h 3.0136 v -6.02721"
         id="path158"
         style="fill:#2b4587;stroke-width:0.615893" />
      <polyline
         class="cls-17"
         points="76.5 163.55 66.78 163.55 66.81 163.56 66.81 163.56 76.5 163.56 76.5 163.55 76.5 163.55"
         id="polyline160"
         style="fill:#333580;stroke-width:2.32779"
         transform="matrix(0.26458333,0,0,0.26458333,172.16426,108.67042)" />
    </g>
    <g
       style="stroke-width:5.3665"
       transform="matrix(0.18634119,0,0,0.18634119,17.12634,290.90219)"
       id="g1387">
      <path
         style="clip-rule:evenodd;fill:#f5b417;fill-opacity:1;fill-rule:evenodd;stroke-width:1.41989"
         id="path4"
         d="m 122.85457,-87.520307 -0.60854,-2.91042 -9.63084,2.03729 c -1.29645,-3.25437 -3.33375,-6.13833 -5.95312,-8.41375 l 6.64104,-6.641043 -2.11667,-2.11667 -6.93208,6.932093 c -3.09562,-2.037293 -6.693957,-3.254383 -10.398124,-3.492503 v -9.33979 h -2.989791 v 9.33979 c -3.704167,0.23812 -7.276042,1.45521 -10.398125,3.492503 l -6.879167,-6.932093 -2.116667,2.11667 6.641042,6.614583 c -2.619375,2.30188 -4.656667,5.18584 -5.953125,8.44021 l -9.630833,-2.06375 -0.608542,2.91042 9.339792,1.98437 c -0.396875,1.66688 -0.608542,3.36021 -0.608542,5.08 h 2.989792 c 0,-10.3452 8.387291,-18.7325 18.7325,-18.75895 10.34521,-0.0265 18.75896,8.41375 18.75896,18.75895 v 0 h 2.98979 c 0,-1.71979 -0.21167,-3.41312 -0.60854,-5.08 z"
         class="st0" />
      <path
         style="fill:#457b9d;fill-opacity:1;stroke-width:1.41989"
         id="path6"
         d="m 76.420194,-72.624267 v 4.60375 h 7.858125 v 3.836458 h -7.858125 v 8.916458 h -4.365625 v -21.351874 h 13.731875 v 3.96875 z"
         class="st1" />
      <path
         style="fill:#457b9d;fill-opacity:1;stroke-width:1.41989"
         id="path8"
         d="m 85.601236,-55.267601 7.064375,-21.351874 h 5.662083 l 7.090836,21.351874 h -4.47146 l -1.428751,-4.339166 h -8.228542 l -1.375833,4.339166 z m 6.958541,-8.149166 h 5.741459 l -2.883959,-8.810625 z"
         class="st1" />
      <path
         style="fill:#457b9d;fill-opacity:1;stroke-width:1.41989"
         id="path10"
         d="m 125.1829,-58.786559 c -0.82021,1.296458 -1.98437,2.328333 -3.36021,3.01625 -1.32291,0.635 -2.96333,0.9525 -4.92125,0.9525 -6.61458,0 -9.92187,-3.704167 -9.92187,-11.1125 0,-3.783542 0.84667,-6.588125 2.51354,-8.41375 1.66688,-1.799166 4.10104,-2.725208 7.24958,-2.725208 2.09021,0 3.78355,0.343958 5.10646,1.058333 1.24354,0.635 2.27542,1.5875 3.01625,2.778125 l -3.38666,2.619375 c -0.37042,-0.608542 -0.82021,-1.137708 -1.34938,-1.613958 -0.42333,-0.343958 -0.89958,-0.582083 -1.40229,-0.740833 -0.60854,-0.185209 -1.24354,-0.264584 -1.87854,-0.238125 -1.74625,0 -3.06917,0.555625 -3.99521,1.666874 -0.92604,1.11125 -1.37583,2.989792 -1.37583,5.582709 0,2.434166 0.42333,4.259791 1.29645,5.450416 0.84667,1.190625 2.2225,1.799167 4.10105,1.799167 1.27,0 2.24895,-0.238125 2.96333,-0.714375 0.74083,-0.529167 1.40229,-1.164167 1.905,-1.931458 z"
         class="st1" />
      <path
         style="fill:#457b9d;fill-opacity:1;stroke-width:1.41989"
         id="path12"
         d="m 145.92623,-64.184059 c 0,3.33375 -0.68791,5.741458 -2.03729,7.196667 -1.34937,1.455208 -3.59833,2.196041 -6.74687,2.196041 -3.09563,0 -5.34458,-0.714375 -6.72042,-2.169583 -1.37583,-1.455208 -2.06375,-3.862917 -2.06375,-7.223125 v -12.435416 h 4.33917 v 12.117916 c 0,1.455208 0.13229,2.592917 0.42333,3.413125 0.21167,0.740833 0.68792,1.402292 1.32292,1.825625 0.60854,0.396875 1.48167,0.582083 2.64583,0.582083 1.66688,0 2.80459,-0.449791 3.46604,-1.322916 0.66146,-0.873125 0.97896,-2.38125 0.97896,-4.471459 v -12.170833 h 4.33917 z"
         class="st1" />
      <path
         style="fill:#457b9d;fill-opacity:1;stroke-width:1.41989"
         id="path14"
         d="m 150.55644,-55.267601 v -21.351874 h 4.33917 v 17.356666 h 8.96937 v 3.96875 z"
         class="st1" />
      <path
         style="fill:#457b9d;fill-opacity:1;stroke-width:1.41989"
         id="path16"
         d="m 173.49582,-72.624267 v 17.356666 h -4.33917 v -17.356666 h -6.56167 v -3.96875 h 17.48896 v 3.96875 z"
         class="st1" />
      <path
         style="fill:#457b9d;fill-opacity:1;stroke-width:1.41989"
         id="path18"
         d="m 191.93728,-63.416767 v 8.149166 h -4.36563 v -8.069791 l -6.6675,-13.282083 h 4.7625 l 4.15396,8.942916 4.25979,-8.942916 h 4.57729 z"
         class="st1" />
      <path
         style="fill:#457b9d;fill-opacity:1;stroke-width:1.41989"
         id="path20"
         d="m 224.16353,-61.458851 c 0,2.143125 -0.71438,3.783542 -2.11667,4.92125 -1.40229,1.137709 -3.4925,1.719792 -6.21771,1.719792 -1.69333,0.02646 -3.36021,-0.291042 -4.92125,-0.9525 -1.40229,-0.635 -2.59292,-1.693333 -3.38667,-3.042708 l 3.36021,-2.566459 c 0.39688,0.582084 0.87313,1.11125 1.40229,1.561042 0.47625,0.370417 1.00542,0.635 1.5875,0.820208 0.68792,0.211667 1.37584,0.291042 2.09021,0.291042 1.19063,0 2.11667,-0.211667 2.77813,-0.608542 0.66146,-0.396875 1.03187,-1.11125 1.00541,-1.852083 0.0265,-0.423333 -0.10583,-0.846667 -0.34395,-1.190625 -0.26459,-0.343958 -0.635,-0.635 -1.03188,-0.820208 -0.76729,-0.343959 -1.5875,-0.608542 -2.40771,-0.79375 -1.11125,-0.291042 -2.16958,-0.608542 -3.14854,-0.899584 -0.89958,-0.264583 -1.77271,-0.661458 -2.54,-1.190625 -0.68792,-0.47625 -1.27,-1.084791 -1.69333,-1.825625 -0.44979,-0.846666 -0.66146,-1.799166 -0.60854,-2.751666 0,-2.010833 0.68791,-3.598333 2.06375,-4.736042 1.37583,-1.137708 3.33375,-1.693333 5.87375,-1.693333 3.70416,0 6.29708,1.27 7.83166,3.783542 l -3.30729,2.592916 c -0.47625,-0.79375 -1.16417,-1.481666 -1.98437,-1.957916 -0.82021,-0.396875 -1.69334,-0.608542 -2.59292,-0.582084 -0.84667,-0.02646 -1.69333,0.15875 -2.46063,0.555625 -0.60854,0.343959 -0.97895,1.005417 -0.9525,1.719792 0,0.687916 0.37042,1.296458 0.97896,1.5875 0.66146,0.370416 1.79917,0.740833 3.43959,1.11125 0.89958,0.238125 1.79916,0.502708 2.67229,0.767291 0.84666,0.264584 1.64041,0.635 2.38125,1.137709 0.68791,0.502708 1.27,1.137708 1.66687,1.905 0.42334,0.926041 0.635,1.957916 0.58209,2.989791 z"
         class="st1" />
      <path
         style="fill:#457b9d;fill-opacity:1;stroke-width:1.41989"
         id="path22"
         d="m 245.33019,-64.184059 c 0,3.33375 -0.68791,5.741458 -2.03729,7.196667 -1.34937,1.455208 -3.59833,2.196041 -6.74687,2.196041 -3.09563,0 -5.34459,-0.714375 -6.72042,-2.169583 -1.37583,-1.455208 -2.06375,-3.862917 -2.06375,-7.223125 v -12.435416 h 4.33917 v 12.117916 c 0,1.455208 0.13229,2.592917 0.42333,3.413125 0.21167,0.740833 0.68792,1.402292 1.32292,1.825625 0.60854,0.396875 1.48166,0.582083 2.64583,0.582083 1.66687,0 2.80458,-0.449791 3.46604,-1.322916 0.66146,-0.873125 0.97896,-2.38125 0.97896,-4.471459 v -12.170833 h 4.33917 z"
         class="st1" />
      <path
         style="fill:#457b9d;fill-opacity:1;stroke-width:1.41989"
         id="path24"
         d="m 266.84082,-55.267601 v -14.340416 l -5.13292,8.916458 h -2.51354 l -5.05354,-8.916458 v 14.340416 h -4.20688 v -21.351874 h 5.02709 l 5.55625,10.133541 5.60916,-10.133541 h 4.89479 v 21.351874 z"
         class="st1" />
      <path
         style="fill:#457b9d;fill-opacity:1;stroke-width:1.41989"
         id="path26"
         d="m 292.55832,-55.267601 v -14.340416 l -5.10646,8.916458 h -2.51354 l -5.08,-8.916458 v 14.340416 h -4.18042 v -21.351874 h 5.00062 l 5.55625,10.133541 5.60917,-10.133541 h 4.89479 v 21.351874 z"
         class="st1" />
      <path
         style="fill:#457b9d;fill-opacity:1;stroke-width:1.41989"
         id="path28"
         d="m 301.36894,-55.267601 v -21.351874 h 13.86417 v 3.836458 h -9.525 v 4.550833 h 8.01687 v 3.862917 h -8.01687 v 5.132916 h 9.525 v 3.96875 z"
         class="st1" />
      <path
         style="fill:#457b9d;fill-opacity:1;stroke-width:1.41989"
         id="path30"
         d="m 331.08165,-55.267601 -5.45042,-8.069791 h -2.19604 v 8.069791 h -4.33917 v -21.351874 h 7.7523 c 2.75166,0 4.7625,0.502708 6.0325,1.481666 1.27,0.978959 1.905,2.592917 1.905,4.868333 0,1.825625 -0.37042,3.280834 -1.13771,4.339167 -0.76729,1.084792 -1.95792,1.825625 -3.25438,2.06375 l 5.715,8.598958 z m -0.71438,-14.816666 c 0,-1.084792 -0.26458,-1.825625 -0.8202,-2.196042 -0.55563,-0.370416 -1.45521,-0.555625 -2.72521,-0.555625 h -3.38667 v 5.688542 h 3.20146 c 0.76729,0.02646 1.50812,-0.05292 2.24896,-0.291042 0.47625,-0.132292 0.87312,-0.449792 1.13771,-0.873125 0.21166,-0.370417 0.34395,-0.9525 0.34395,-1.772708 z"
         class="st1" />
      <path
         style="fill:#457b9d;fill-opacity:1;stroke-width:1.41989"
         id="path32"
         d="m 363.83707,-58.786559 c -0.82021,1.296458 -1.98438,2.328333 -3.36021,3.01625 -1.32292,0.635 -2.96334,0.9525 -4.92125,0.9525 -6.61459,0 -9.92188,-3.704167 -9.92188,-11.1125 0,-3.783542 0.84667,-6.588125 2.51354,-8.41375 1.66688,-1.799166 4.10105,-2.725208 7.24959,-2.725208 2.09021,0 3.78354,0.343958 5.10646,1.058333 1.24354,0.635 2.27541,1.5875 3.01625,2.778125 l -3.38667,2.619375 c -0.37042,-0.608542 -0.82021,-1.137708 -1.34938,-1.613958 -0.42333,-0.343958 -0.89958,-0.582083 -1.40229,-0.740833 -0.60854,-0.185209 -1.24354,-0.264584 -1.87854,-0.238125 -1.74625,0 -3.06917,0.555625 -3.99521,1.666874 -0.89958,1.11125 -1.37583,2.989792 -1.37583,5.582709 0,2.434166 0.42333,4.259791 1.29646,5.450416 0.84666,1.190625 2.2225,1.799167 4.10104,1.799167 1.27,0 2.24896,-0.238125 2.96333,-0.714375 0.74084,-0.529167 1.40229,-1.164167 1.93146,-1.931458 z"
         class="st1" />
      <path
         style="fill:#457b9d;fill-opacity:1;stroke-width:1.41989"
         id="path34"
         d="m 384.42165,-65.930309 c 0,3.704167 -0.79375,6.482292 -2.35479,8.334375 -1.56104,1.852083 -3.83646,2.778125 -6.82625,2.778125 -3.14854,0 -5.47688,-0.978958 -6.95854,-2.910417 -1.48167,-1.931458 -2.2225,-4.683125 -2.2225,-8.202083 0,-3.518958 0.74083,-6.270625 2.2225,-8.202083 1.48166,-1.931458 3.81,-2.910417 6.95854,-2.910417 3.175,0 5.50333,0.978959 6.985,2.910417 1.45521,1.931458 2.19604,4.683125 2.19604,8.202083 z m -4.49792,0 c 0,-2.54 -0.34396,-4.365625 -1.05833,-5.529792 -0.71438,-1.164166 -1.905,-1.746249 -3.62479,-1.746249 -1.71979,0 -2.91042,0.582083 -3.62479,1.746249 -0.71438,1.164167 -1.05834,2.989792 -1.05834,5.529792 0,2.54 0.37042,4.365625 1.08479,5.529792 0.71438,1.164166 1.93146,1.74625 3.6248,1.74625 1.69333,0 2.91041,-0.582084 3.62479,-1.74625 0.71437,-1.164167 1.05833,-3.01625 1.03187,-5.529792 z"
         class="st1" />
      <path
         style="fill:#457b9d;fill-opacity:1;stroke-width:1.41989"
         id="path36"
         d="m 400.08498,-55.267601 -7.77875,-15.24 v 15.24 h -4.25979 v -21.351874 h 5.63563 l 7.22312,14.393333 v -14.393333 h 4.25979 v 21.351874 z"
         class="st1" />
      <path
         style="fill:#457b9d;fill-opacity:1;stroke-width:1.41989"
         id="path38"
         d="m 414.16081,-72.624267 v 4.60375 h 7.85813 v 3.836458 h -7.85813 v 8.916458 h -4.33916 v -21.351874 h 13.73187 v 3.96875 z"
         class="st1" />
      <path
         style="fill:#457b9d;fill-opacity:1;stroke-width:1.41989"
         id="path40"
         d="m 426.86081,-55.267601 v -21.351874 h 13.86417 v 3.836458 h -9.525 v 4.550833 h 8.01688 v 3.862917 h -8.01688 v 5.132916 h 9.525 v 3.96875 z"
         class="st1" />
      <path
         style="fill:#457b9d;fill-opacity:1;stroke-width:1.41989"
         id="path42"
         d="m 456.57352,-55.267601 -5.45041,-8.069791 h -2.19605 v 8.069791 h -4.33916 v -21.351874 h 7.75229 c 2.75167,0 4.7625,0.502708 6.0325,1.481666 1.27,0.978959 1.905,2.592917 1.905,4.868333 0,1.825625 -0.37042,3.280834 -1.13771,4.339167 -0.76729,1.084792 -1.95792,1.825625 -3.25437,2.06375 l 5.715,8.598958 z m -0.74083,-14.816666 c 0,-1.084792 -0.26458,-1.825625 -0.82021,-2.196042 -0.55562,-0.370416 -1.45521,-0.555625 -2.72521,-0.555625 h -3.38666 v 5.688542 h 3.20145 c 0.7673,0.02646 1.50813,-0.05292 2.24896,-0.291042 0.47625,-0.132292 0.87313,-0.449792 1.13771,-0.873125 0.23813,-0.370417 0.34396,-0.9525 0.34396,-1.772708 z"
         class="st1" />
      <path
         style="fill:#457b9d;fill-opacity:1;stroke-width:1.41989"
         id="path44"
         d="m 464.37873,-55.267601 v -21.351874 h 13.86417 v 3.836458 h -9.525 v 4.550833 h 8.01687 v 3.862917 h -8.01687 v 5.132916 h 9.525 v 3.96875 z"
         class="st1" />
      <path
         style="fill:#457b9d;fill-opacity:1;stroke-width:1.41989"
         id="path46"
         d="m 494.1179,-55.267601 -7.77875,-15.24 v 15.24 h -4.25979 v -21.351874 h 5.63562 l 7.22313,14.393333 v -14.393333 h 4.25979 v 21.351874 z"
         class="st1" />
      <path
         style="fill:#457b9d;fill-opacity:1;stroke-width:1.41989"
         id="path48"
         d="m 521.21123,-58.786559 c -0.82021,1.296458 -1.98437,2.328333 -3.36021,3.01625 -1.32291,0.635 -2.96333,0.9525 -4.92125,0.9525 -6.61458,0 -9.92187,-3.704167 -9.92187,-11.1125 0,-3.783542 0.84666,-6.588125 2.51354,-8.41375 1.66687,-1.799166 4.10104,-2.725208 7.24958,-2.725208 2.09021,0 3.78354,0.343958 5.10646,1.058333 1.24354,0.635 2.27542,1.5875 2.98979,2.751667 l -3.38666,2.619375 c -0.37042,-0.608542 -0.82021,-1.137709 -1.34938,-1.613958 -0.42333,-0.343959 -0.89958,-0.582084 -1.40229,-0.740834 -0.60854,-0.185208 -1.24354,-0.264583 -1.87854,-0.238125 -1.74625,0 -3.06917,0.555625 -3.99521,1.666875 -0.92604,1.11125 -1.37583,2.989792 -1.37583,5.582708 0,2.434167 0.42333,4.259792 1.29645,5.450417 0.84667,1.190625 2.2225,1.799167 4.10105,1.799167 1.27,0 2.24895,-0.238125 2.96333,-0.714375 0.74083,-0.529167 1.40229,-1.164167 1.93146,-1.931459 z"
         class="st1" />
      <path
         style="fill:#457b9d;fill-opacity:1;stroke-width:1.41989"
         id="path50"
         d="m 524.41269,-55.267601 v -21.351874 h 13.86417 v 3.836458 h -9.525 v 4.550833 h 8.01687 v 3.862917 h -8.01687 v 5.132916 h 9.525 v 3.96875 z"
         class="st1" />
      <text
         transform="matrix(0,-1.0431285,0.95865467,0,0,0)"
         id="text884"
         y="72.591637"
         x="52.6945"
         style="font-style:normal;font-weight:normal;font-size:9.53913px;line-height:1.25;font-family:sans-serif;fill:#000000;fill-opacity:1;stroke:none;stroke-width:1.27979"
         xml:space="preserve"><tspan
           style="font-style:normal;font-variant:normal;font-weight:bold;font-stretch:normal;font-family:Arial;-inkscape-font-specification:Arial;stroke-width:1.27979"
           y="72.591637"
           x="52.6945"
           id="tspan882"
           sodipodi:role="line">2022</tspan></text>
    </g>
  </g>
</svg>
