<?xml version="1.0" encoding="UTF-8" standalone="no"?>
<svg
   xmlns:dc="http://purl.org/dc/elements/1.1/"
   xmlns:cc="http://creativecommons.org/ns#"
   xmlns:rdf="http://www.w3.org/1999/02/22-rdf-syntax-ns#"
   xmlns:svg="http://www.w3.org/2000/svg"
   xmlns="http://www.w3.org/2000/svg"
   xmlns:sodipodi="http://sodipodi.sourceforge.net/DTD/sodipodi-0.dtd"
   xmlns:inkscape="http://www.inkscape.org/namespaces/inkscape"
   inkscape:version="1.0 (4035a4fb49, 2020-05-01)"
   sodipodi:docname="fscWhite.svg"
   xml:space="preserve"
   style="enable-background:new 0 0 1843.4 218.2;"
   viewBox="0 0 1843.4 218.2"
   y="0px"
   x="0px"
   id="Layer_1"
   version="1.1"><metadata
   id="metadata57"><rdf:RDF><cc:Work
       rdf:about=""><dc:format>image/svg+xml</dc:format><dc:type
         rdf:resource="http://purl.org/dc/dcmitype/StillImage" /></cc:Work></rdf:RDF></metadata><defs
   id="defs55" /><sodipodi:namedview
   inkscape:current-layer="Layer_1"
   inkscape:window-maximized="1"
   inkscape:window-y="-6"
   inkscape:window-x="-6"
   inkscape:cy="193.27771"
   inkscape:cx="1.173996"
   inkscape:zoom="1.732285"
   showgrid="false"
   id="namedview53"
   inkscape:window-height="842"
   inkscape:window-width="1368"
   inkscape:pageshadow="2"
   inkscape:pageopacity="0"
   guidetolerance="10"
   gridtolerance="10"
   objecttolerance="10"
   borderopacity="1"
   bordercolor="#666666"
   pagecolor="#ffffff" />
<style
   id="style2"
   type="text/css">
	.st0{fill-rule:evenodd;clip-rule:evenodd;fill:#FFFFFF;}
	.st1{fill:#FFFFFF;}
</style>
<path
   style="fill:#f5b417;fill-opacity:1"
   id="path4"
   d="M230.3,90.5l-2.3-11l-36.4,7.7C186.7,74.9,179,64,169.1,55.4l25.1-25.1l-8-8L160,48.5  c-11.7-7.7-25.3-12.3-39.3-13.2V0h-11.3v35.3c-14,0.9-27.5,5.5-39.3,13.2l-26-26.2l-8,8l25.1,25C51.3,64,43.6,74.9,38.7,87.2  L2.3,79.4L0,90.4l35.3,7.5c-1.5,6.3-2.3,12.7-2.3,19.2h11.3c0-39.1,31.7-70.8,70.8-70.9S186,78,186,117.1l0,0h11.3  c0-6.5-0.8-12.9-2.3-19.2L230.3,90.5z"
   class="st0" />






















<g
   transform="translate(4)"
   id="g909"><path
     class="st1"
     d="m 50.8,146.8 v 17.4 h 29.7 v 14.5 H 50.8 v 33.7 H 34.3 v -80.7 h 51.9 v 15 z"
     id="path6"
     style="fill:#000000" /><path
     class="st1"
     d="m 85.5,212.4 26.7,-80.7 h 21.4 l 26.8,80.7 H 143.5 L 138.1,196 H 107 l -5.2,16.4 z m 26.3,-30.8 h 21.7 l -10.9,-33.3 z"
     id="path8"
     style="fill:#000000" /><path
     class="st1"
     d="m 235.1,199.1 c -3.1,4.9 -7.5,8.8 -12.7,11.4 -5,2.4 -11.2,3.6 -18.6,3.6 -25,0 -37.5,-14 -37.5,-42 0,-14.3 3.2,-24.9 9.5,-31.8 6.3,-6.8 15.5,-10.3 27.4,-10.3 7.9,0 14.3,1.3 19.3,4 4.7,2.4 8.6,6 11.4,10.5 l -12.8,9.9 c -1.4,-2.3 -3.1,-4.3 -5.1,-6.1 -1.6,-1.3 -3.4,-2.2 -5.3,-2.8 -2.3,-0.7 -4.7,-1 -7.1,-0.9 -6.6,0 -11.6,2.1 -15.1,6.3 -3.5,4.2 -5.2,11.3 -5.2,21.1 0,9.2 1.6,16.1 4.9,20.6 3.2,4.5 8.4,6.8 15.5,6.8 4.8,0 8.5,-0.9 11.2,-2.7 2.8,-2 5.3,-4.4 7.2,-7.3 z"
     id="path10"
     style="fill:#000000" /><path
     class="st1"
     d="m 313.5,178.7 c 0,12.6 -2.6,21.7 -7.7,27.2 -5.1,5.5 -13.6,8.3 -25.5,8.3 -11.7,0 -20.2,-2.7 -25.4,-8.2 -5.2,-5.5 -7.8,-14.6 -7.8,-27.3 v -47 h 16.4 v 45.8 c 0,5.5 0.5,9.8 1.6,12.9 0.8,2.8 2.6,5.3 5,6.9 2.3,1.5 5.6,2.2 10,2.2 6.3,0 10.6,-1.7 13.1,-5 2.5,-3.3 3.7,-9 3.7,-16.9 v -46 h 16.4 z"
     id="path12"
     style="fill:#000000" /><path
     class="st1"
     d="m 331,212.4 v -80.7 h 16.4 v 65.6 h 33.9 v 15 z"
     id="path14"
     style="fill:#000000" /><path
     class="st1"
     d="m 417.7,146.8 v 65.6 h -16.4 v -65.6 h -24.8 v -15 h 66.1 v 15 z"
     id="path16"
     style="fill:#000000" /><path
     class="st1"
     d="m 487.4,181.6 v 30.8 h -16.5 v -30.5 l -25.2,-50.2 h 18 l 15.7,33.8 16.1,-33.8 h 17.3 z"
     id="path18"
     style="fill:#000000" /><path
     class="st1"
     d="m 609.2,189 c 0,8.1 -2.7,14.3 -8,18.6 -5.3,4.3 -13.2,6.5 -23.5,6.5 -6.4,0.1 -12.7,-1.1 -18.6,-3.6 -5.3,-2.4 -9.8,-6.4 -12.8,-11.5 l 12.7,-9.7 c 1.5,2.2 3.3,4.2 5.3,5.9 1.8,1.4 3.8,2.4 6,3.1 2.6,0.8 5.2,1.1 7.9,1.1 4.5,0 8,-0.8 10.5,-2.3 2.5,-1.5 3.9,-4.2 3.8,-7 0.1,-1.6 -0.4,-3.2 -1.3,-4.5 -1,-1.3 -2.4,-2.4 -3.9,-3.1 -2.9,-1.3 -6,-2.3 -9.1,-3 -4.2,-1.1 -8.2,-2.3 -11.9,-3.4 -3.4,-1 -6.7,-2.5 -9.6,-4.5 -2.6,-1.8 -4.8,-4.1 -6.4,-6.9 -1.7,-3.2 -2.5,-6.8 -2.3,-10.4 0,-7.6 2.6,-13.6 7.8,-17.9 5.2,-4.3 12.6,-6.4 22.2,-6.4 14,0 23.8,4.8 29.6,14.3 l -12.5,9.8 c -1.8,-3 -4.4,-5.6 -7.5,-7.4 -3.1,-1.5 -6.4,-2.3 -9.8,-2.2 -3.2,-0.1 -6.4,0.6 -9.3,2.1 -2.3,1.3 -3.7,3.8 -3.6,6.5 0,2.6 1.4,4.9 3.7,6 2.5,1.4 6.8,2.8 13,4.2 3.4,0.9 6.8,1.9 10.1,2.9 3.2,1 6.2,2.4 9,4.3 2.6,1.9 4.8,4.3 6.3,7.2 1.6,3.5 2.4,7.4 2.2,11.3 z"
     id="path20"
     style="fill:#000000" /><path
     class="st1"
     d="m 689.2,178.7 c 0,12.6 -2.6,21.7 -7.7,27.2 -5.1,5.5 -13.6,8.3 -25.5,8.3 -11.7,0 -20.2,-2.7 -25.4,-8.2 -5.2,-5.5 -7.8,-14.6 -7.8,-27.3 v -47 h 16.4 v 45.8 c 0,5.5 0.5,9.8 1.6,12.9 0.8,2.8 2.6,5.3 5,6.9 2.3,1.5 5.6,2.2 10,2.2 6.3,0 10.6,-1.7 13.1,-5 2.5,-3.3 3.7,-9 3.7,-16.9 v -46 H 689 Z"
     id="path22"
     style="fill:#000000" /><path
     class="st1"
     d="m 770.5,212.4 v -54.2 l -19.4,33.7 h -9.5 l -19.1,-33.7 v 54.2 h -15.9 v -80.7 h 19 l 21,38.3 21.2,-38.3 h 18.5 v 80.7 z"
     id="path24"
     style="fill:#000000" /><path
     class="st1"
     d="m 867.7,212.4 v -54.2 l -19.3,33.7 h -9.5 l -19.2,-33.7 v 54.2 h -15.8 v -80.7 h 18.9 l 21,38.3 21.2,-38.3 h 18.5 v 80.7 z"
     id="path26"
     style="fill:#000000" /><path
     class="st1"
     d="m 901,212.4 v -80.7 h 52.4 v 14.5 h -36 v 17.2 h 30.3 V 178 h -30.3 v 19.4 h 36 v 15 z"
     id="path28"
     style="fill:#000000" /><path
     class="st1"
     d="m 1013.3,212.4 -20.6,-30.5 h -8.3 v 30.5 H 968 v -80.7 h 29.3 c 10.4,0 18,1.9 22.8,5.6 4.8,3.7 7.2,9.8 7.2,18.4 0,6.9 -1.4,12.4 -4.3,16.4 -2.9,4.1 -7.4,6.9 -12.3,7.8 l 21.6,32.5 z m -2.7,-56 c 0,-4.1 -1,-6.9 -3.1,-8.3 -2.1,-1.4 -5.5,-2.1 -10.3,-2.1 h -12.8 v 21.5 h 12.1 c 2.9,0.1 5.7,-0.2 8.5,-1.1 1.8,-0.5 3.3,-1.7 4.3,-3.3 0.8,-1.4 1.3,-3.6 1.3,-6.7 z"
     id="path30"
     style="fill:#000000" /><path
     class="st1"
     d="m 1137.1,199.1 c -3.1,4.9 -7.5,8.8 -12.7,11.4 -5,2.4 -11.2,3.6 -18.6,3.6 -25,0 -37.5,-14 -37.5,-42 0,-14.3 3.2,-24.9 9.5,-31.8 6.3,-6.8 15.5,-10.3 27.4,-10.3 7.9,0 14.3,1.3 19.3,4 4.7,2.4 8.6,6 11.4,10.5 l -12.8,9.9 c -1.4,-2.3 -3.1,-4.3 -5.1,-6.1 -1.6,-1.3 -3.4,-2.2 -5.3,-2.8 -2.3,-0.7 -4.7,-1 -7.1,-0.9 -6.6,0 -11.6,2.1 -15.1,6.3 -3.4,4.2 -5.2,11.3 -5.2,21.1 0,9.2 1.6,16.1 4.9,20.6 3.2,4.5 8.4,6.8 15.5,6.8 4.8,0 8.5,-0.9 11.2,-2.7 2.8,-2 5.3,-4.4 7.3,-7.3 z"
     id="path32"
     style="fill:#000000" /><path
     class="st1"
     d="m 1214.9,172.1 c 0,14 -3,24.5 -8.9,31.5 -5.9,7 -14.5,10.5 -25.8,10.5 -11.9,0 -20.7,-3.7 -26.3,-11 -5.6,-7.3 -8.4,-17.7 -8.4,-31 0,-13.3 2.8,-23.7 8.4,-31 5.6,-7.3 14.4,-11 26.3,-11 12,0 20.8,3.7 26.4,11 5.5,7.3 8.3,17.7 8.3,31 z m -17,0 c 0,-9.6 -1.3,-16.5 -4,-20.9 -2.7,-4.4 -7.2,-6.6 -13.7,-6.6 -6.5,0 -11,2.2 -13.7,6.6 -2.7,4.4 -4,11.3 -4,20.9 0,9.6 1.4,16.5 4.1,20.9 2.7,4.4 7.3,6.6 13.7,6.6 6.4,0 11,-2.2 13.7,-6.6 2.7,-4.4 4,-11.4 3.9,-20.9 z"
     id="path34"
     style="fill:#000000" /><path
     class="st1"
     d="m 1274.1,212.4 -29.4,-57.6 v 57.6 h -16.1 v -80.7 h 21.3 l 27.3,54.4 v -54.4 h 16.1 v 80.7 z"
     id="path36"
     style="fill:#000000" /><path
     class="st1"
     d="m 1327.3,146.8 v 17.4 h 29.7 v 14.5 h -29.7 v 33.7 h -16.4 v -80.7 h 51.9 v 15 z"
     id="path38"
     style="fill:#000000" /><path
     class="st1"
     d="m 1375.3,212.4 v -80.7 h 52.4 v 14.5 h -36 v 17.2 H 1422 V 178 h -30.3 v 19.4 h 36 v 15 z"
     id="path40"
     style="fill:#000000" /><path
     class="st1"
     d="M 1487.6,212.4 1467,181.9 h -8.3 v 30.5 h -16.4 v -80.7 h 29.3 c 10.4,0 18,1.9 22.8,5.6 4.8,3.7 7.2,9.8 7.2,18.4 0,6.9 -1.4,12.4 -4.3,16.4 -2.9,4.1 -7.4,6.9 -12.3,7.8 l 21.6,32.5 z m -2.8,-56 c 0,-4.1 -1,-6.9 -3.1,-8.3 -2.1,-1.4 -5.5,-2.1 -10.3,-2.1 h -12.8 v 21.5 h 12.1 c 2.9,0.1 5.7,-0.2 8.5,-1.1 1.8,-0.5 3.3,-1.7 4.3,-3.3 0.9,-1.4 1.3,-3.6 1.3,-6.7 z"
     id="path42"
     style="fill:#000000" /><path
     class="st1"
     d="m 1517.1,212.4 v -80.7 h 52.4 v 14.5 h -36 v 17.2 h 30.3 V 178 h -30.3 v 19.4 h 36 v 15 z"
     id="path44"
     style="fill:#000000" /><path
     class="st1"
     d="m 1629.5,212.4 -29.4,-57.6 v 57.6 H 1584 v -80.7 h 21.3 l 27.3,54.4 v -54.4 h 16.1 v 80.7 z"
     id="path46"
     style="fill:#000000" /><path
     class="st1"
     d="m 1731.9,199.1 c -3.1,4.9 -7.5,8.8 -12.7,11.4 -5,2.4 -11.2,3.6 -18.6,3.6 -25,0 -37.5,-14 -37.5,-42 0,-14.3 3.2,-24.9 9.5,-31.8 6.3,-6.8 15.5,-10.3 27.4,-10.3 7.9,0 14.3,1.3 19.3,4 4.7,2.4 8.6,6 11.3,10.4 l -12.8,9.9 c -1.4,-2.3 -3.1,-4.3 -5.1,-6.1 -1.6,-1.3 -3.4,-2.2 -5.3,-2.8 -2.3,-0.7 -4.7,-1 -7.1,-0.9 -6.6,0 -11.6,2.1 -15.1,6.3 -3.5,4.2 -5.2,11.3 -5.2,21.1 0,9.2 1.6,16.1 4.9,20.6 3.2,4.5 8.4,6.8 15.5,6.8 4.8,0 8.5,-0.9 11.2,-2.7 2.8,-2 5.3,-4.4 7.3,-7.3 z"
     id="path48"
     style="fill:#000000" /><path
     class="st1"
     d="m 1744,212.4 v -80.7 h 52.4 v 14.5 h -36 v 17.2 h 30.3 V 178 h -30.3 v 19.4 h 36 v 15 z"
     id="path50"
     style="fill:#000000" /></g>
<text
   transform="matrix(0,-1.0431285,0.95865467,0,0,0)"
   id="text884"
   y="30.236403"
   x="-204.70689"
   style="font-style:normal;font-weight:normal;font-size:36.0534px;line-height:1.25;font-family:sans-serif;fill:#000000;fill-opacity:1;stroke:none;stroke-width:0.901334"
   xml:space="preserve"><tspan
     style="font-style:normal;font-variant:normal;font-weight:bold;font-stretch:normal;font-family:Arial;-inkscape-font-specification:Arial;stroke-width:0.901334"
     y="30.236403"
     x="-204.70689"
     id="tspan882"
     sodipodi:role="line">2022</tspan></text></svg>
