<?xml version="1.0" encoding="UTF-8" standalone="no"?>
<svg
   xmlns:dc="http://purl.org/dc/elements/1.1/"
   xmlns:cc="http://creativecommons.org/ns#"
   xmlns:rdf="http://www.w3.org/1999/02/22-rdf-syntax-ns#"
   xmlns:svg="http://www.w3.org/2000/svg"
   xmlns="http://www.w3.org/2000/svg"
   xmlns:sodipodi="http://sodipodi.sourceforge.net/DTD/sodipodi-0.dtd"
   xmlns:inkscape="http://www.inkscape.org/namespaces/inkscape"
   version="1.1"
   id="svg2"
   xml:space="preserve"
   width="648.56445"
   height="153.7793"
   viewBox="0 0 648.56446 153.7793"
   sodipodi:docname="GitHub_Logo.svg"
   inkscape:version="1.0 (4035a4fb49, 2020-05-01)"><metadata
     id="metadata8"><rdf:RDF><cc:Work
         rdf:about=""><dc:format>image/svg+xml</dc:format><dc:type
           rdf:resource="http://purl.org/dc/dcmitype/StillImage" /><dc:title /></cc:Work></rdf:RDF></metadata><defs
     id="defs6" /><sodipodi:namedview
     inkscape:bbox-nodes="true"
     inkscape:bbox-paths="true"
     inkscape:snap-bbox="true"
     inkscape:document-rotation="0"
     pagecolor="#ffffff"
     bordercolor="#666666"
     borderopacity="1"
     objecttolerance="10"
     gridtolerance="10"
     guidetolerance="10"
     inkscape:pageopacity="0"
     inkscape:pageshadow="2"
     inkscape:window-width="1368"
     inkscape:window-height="842"
     id="namedview4"
     showgrid="false"
     inkscape:zoom="1"
     inkscape:cx="408.97925"
     inkscape:cy="208.55196"
     inkscape:window-x="-6"
     inkscape:window-y="-6"
     inkscape:window-maximized="1"
     inkscape:current-layer="g10" /><g
     id="g10"
     inkscape:groupmode="layer"
     inkscape:label="ink_ext_XXXXXX"
     transform="matrix(1.3333333,0,0,-1.3333333,-68.833991,507.24987)"><path
       transform="matrix(0.75000002,0,0,-0.75000002,37.74317,380.99405)"
       d="m 18.96875,0.7421875 c -0.158951,0 -0.311752,0.0211038 -0.458984,0.0507813 H 667.07422 c -0.14723,-0.0296775 -0.30003,-0.0507813 -0.45899,-0.0507813 z m 76.667969,3.8222656 c -41.878359,0 -75.837891,33.9532519 -75.837891,75.8378909 0,33.506956 21.730754,61.933086 51.863281,71.960936 3.790114,0.70201 5.181641,-1.64538 5.181641,-3.64844 0,-1.8084 -0.07088,-7.78219 -0.103516,-14.11914 -21.098043,4.58756 -25.550781,-8.94726 -25.550781,-8.94726 -3.449781,-8.76574 -8.419922,-11.09766 -8.419922,-11.09766 -6.880725,-4.70688 0.519531,-4.60937 0.519531,-4.60937 7.615398,0.53373 11.625,7.8164 11.625,7.8164 6.763942,11.59263 17.740749,8.2405 22.06836,6.30274 0.680664,-4.90154 2.645624,-8.24808 4.814453,-10.14063 -16.844528,-1.91765 -34.550781,-8.41973 -34.550781,-37.478514 0,-8.279733 2.961205,-15.044535 7.8125,-20.355468 -0.78741,-1.911382 -3.383512,-9.624273 0.734375,-20.070313 0,0 6.368982,-2.038416 20.861328,7.773437 6.049362,-1.680319 12.537475,-2.523841 18.982422,-2.552734 6.444951,0.02893 12.937381,0.872415 18.998051,2.552734 14.47476,-9.811853 20.83398,-7.773437 20.83398,-7.773437 4.12793,10.44604 1.53154,18.158931 0.74414,20.070313 4.86259,5.310933 7.80469,12.075735 7.80469,20.355468 0,29.127854 -17.74168,35.540424 -34.62891,37.417974 2.72014,2.35343 5.14453,6.96954 5.14453,14.04492 0,10.14716 -0.0879,18.31269 -0.0879,20.81054 0,2.01814 1.36487,4.38338 5.20899,3.63868 C 149.77048,142.31436 171.47266,113.898 171.47266,80.402344 171.47262,38.517705 137.51885,4.5644531 95.636719,4.5644531 Z M 260.55078,15.210938 c -25.37416,-2e-6 -51.40234,10.796633 -51.40234,62.695312 0,51.89868 29.8011,59.63086 54.91406,59.63086 20.79287,0 33.40625,-8.88477 33.40625,-8.88477 0.51991,-0.28758 0.57617,-1.0136 0.57617,-1.34765 V 69.345703 c 0,-0.982053 -0.79458,-1.777344 -1.77539,-1.777344 h -38.01172 c -0.9808,0 -1.77539,0.795291 -1.77539,1.777344 v 18.582031 c 0,0.9808 0.79459,1.78125 1.77539,1.78125 h 14.82813 v 23.087896 c 0,0 -3.32988,1.13476 -12.53516,1.13476 -10.85921,0 -26.0293,-3.9681 -26.0293,-37.328124 0,-33.365053 15.7968,-37.75586 30.62696,-37.75586 12.83841,0 18.36855,2.258843 21.88867,3.347656 1.10639,0.339074 2.12891,-0.76012 2.12891,-1.742187 l 4.24023,-17.957031 c 0,-0.458374 -0.15726,-1.011226 -0.67969,-1.386719 -1.42914,-1.01848 -10.14842,-5.898437 -32.17578,-5.898437 z m 150.14649,4.43164 c -0.97328,0 -1.76758,0.79876 -1.76758,1.78711 V 133.42188 c 0,0.98834 0.7943,1.79296 1.76758,1.79296 h 21.40234 c 0.97956,0 1.76562,-0.80462 1.76562,-1.79296 V 85.519531 h 33.36133 c 0,0 -0.0605,47.898559 -0.0605,47.902349 0,0.98834 0.79387,1.79296 1.77343,1.79296 h 21.45313 c 0.98081,0 1.76312,-0.80462 1.76562,-1.79296 V 21.429688 c 0,-0.98835 -0.78356,-1.78711 -1.76562,-1.78711 h -21.40039 c -0.97704,0 -1.77344,0.79876 -1.77344,1.78711 l 0.008,41.361328 H 433.86523 V 21.429688 c 0,-0.98835 -0.78606,-1.78711 -1.76562,-1.78711 z m 177.34961,0 c -0.97579,0 -1.76758,0.798762 -1.76758,1.78711 V 133.42188 c 0,0.98834 0.79123,1.79296 1.76953,1.79296 h 14.89258 c 0.67061,0 1.17724,-0.34585 1.55273,-0.95117 0.37047,-0.6028 0.9043,-5.16406 0.9043,-5.16406 0,0 8.77717,8.31641 25.39062,8.31641 19.50564,0 30.69141,-9.89169 30.69141,-44.412114 0,-34.521666 -17.86641,-39.033203 -29.9375,-39.033203 -12.06229,0 -20.26563,5.382813 -20.26563,5.382813 V 21.429688 c 0,-0.988348 -0.79304,-1.78711 -1.76757,-1.78711 z m -265.19141,2.548828 c -7.61539,0 -13.79883,6.227794 -13.79883,13.933594 0,7.699533 6.18344,13.943359 13.79883,13.943359 7.62292,0 13.79883,-6.243826 13.79883,-13.943359 0,-7.7058 -6.17591,-13.933594 -13.79883,-13.933594 z m 34.48242,11.703125 c -0.85145,0 -1.30664,0.373856 -1.30664,1.191407 v 21.917968 c 0,0 -10.96288,2.646582 -11.70508,2.861328 -0.73717,0.213494 -1.28125,0.892559 -1.28125,1.705078 V 75.34375 c 0,0.990853 0.79124,1.789062 1.76953,1.789062 h 11.2168 v 33.134768 c 0,24.61061 17.26229,27.02734 28.91016,27.02734 5.32349,0 11.69105,-1.7096 12.74218,-2.09765 0.63546,-0.23359 1.00391,-0.89217 1.00391,-1.60547 l 0.0195,-15.15235 c 0,-0.98708 -0.83408,-1.78711 -1.77344,-1.78711 -0.93685,0 -3.33097,0.38086 -5.79492,0.38086 -7.88665,0 -10.55664,-3.66504 -10.55664,-8.41211 0,-4.74202 -0.002,-31.488278 -0.002,-31.488278 h 16.05664 c 0.97829,0 1.76953,-0.798209 1.76953,-1.789062 V 58.091797 c 0,-0.988347 -0.79124,-1.783203 -1.76953,-1.783203 h -16.05469 c 0,0 -0.0234,-21.205211 -0.0234,-21.208985 0,-0.803733 -0.41569,-1.205078 -1.34375,-1.205078 z m -45.31836,22.423828 c -0.97829,0 -1.85351,1.009421 -1.85351,1.990235 v 74.064456 c 0,2.17636 1.35692,2.82422 3.11132,2.82422 h 19.22071 c 2.10981,0 2.62695,-1.0359 2.62695,-2.85938 V 109.79883 58.101562 c 0,-0.982066 -0.79124,-1.783203 -1.76953,-1.783203 z m 192.40625,0.167969 c -0.97201,0 -1.76953,0.803936 -1.76953,1.791016 v 51.513676 c 0,22.27225 12.41268,27.7207 29.48828,27.7207 14.01011,0 25.30469,-7.73828 25.30469,-7.73828 0,0 0.53762,4.079 0.78125,4.5625 0.24237,0.48224 0.87681,0.96875 1.5625,0.96875 l 13.71289,-0.0606 c 0.97201,0 1.76953,-0.80379 1.76953,-1.78711 l -0.008,-75.179686 c 0,-0.98708 -0.79194,-1.791016 -1.77149,-1.791016 h -21.23828 c -0.97326,0 -1.76562,0.803936 -1.76562,1.791016 v 54.914066 c 0,0 -5.3966,3.94726 -13.05469,3.94726 -7.65683,0 -9.68945,-3.47601 -9.68945,-10.97461 V 58.277344 c 0,-0.98708 -0.79179,-1.791016 -1.76758,-1.791016 z m 120.19531,17.898438 c 6.53411,0.232977 12.17579,3.996749 12.17579,19.960937 0,19.238147 -3.32546,23.036067 -13.63086,22.724607 -7.36674,-0.22353 -12.36329,-3.5664 -12.36329,-3.5664 V 78.037109 c 0,0 4.92846,-3.020532 10.97657,-3.560547 0.956,-0.08555 1.90835,-0.125079 2.84179,-0.0918 z M 18.509766,154.4707 c 0.147232,0.0297 0.300033,0.0508 0.458984,0.0508 h 647.64648 c 0.15896,0 0.31176,-0.0211 0.45899,-0.0508 z"
       style="fill:#ffffff;stroke-width:1.88976;stroke-linecap:round;stroke-dashoffset:12.0945"
       id="rect961" /></g></svg>
